<?xml version="1.0" standalone="no"?>
<!DOCTYPE svg PUBLIC "-//W3C//DTD SVG 20010904//EN"
 "http://www.w3.org/TR/2001/REC-SVG-20010904/DTD/svg10.dtd">
<svg version="1.0" xmlns="http://www.w3.org/2000/svg"
 width="1000.000000pt" height="1000.000000pt" viewBox="0 0 1000.000000 1000.000000"
 preserveAspectRatio="xMidYMid meet">
<metadata>
Created by potrace 1.14, written by Peter Selinger 2001-2017
</metadata>
<g transform="translate(0.000000,1000.000000) scale(0.100000,-0.100000)"
fill="#000000" stroke="none">
<path d="M6460 9952 c-391 -278 -751 -660 -1002 -1062 -218 -350 -344 -667
-375 -946 -10 -84 -10 -315 -1 -404 17 -155 86 -438 138 -565 5 -11 18 -47 30
-79 25 -70 128 -299 233 -516 41 -85 90 -191 110 -235 19 -44 51 -114 70 -155
19 -41 57 -127 85 -190 27 -63 61 -141 76 -172 14 -31 26 -59 26 -62 0 -3 11
-29 24 -58 142 -311 311 -825 372 -1133 2 -11 7 -33 10 -50 4 -16 8 -39 10
-50 4 -34 15 -99 19 -125 9 -48 20 -141 32 -265 9 -98 10 -547 2 -632 -4 -35
-5 -63 -4 -63 2 0 27 30 57 67 29 38 59 75 65 83 149 180 589 771 734 985 313
459 549 933 734 1470 15 44 31 89 36 100 32 73 136 472 153 590 3 22 8 51 10
65 47 248 54 719 16 975 -15 103 -20 134 -26 173 -4 30 -31 157 -59 277 -46
202 -197 575 -322 796 -184 323 -469 670 -732 891 -47 40 -88 76 -91 79 -9 11
-205 155 -265 196 -101 68 -92 67 -165 15z"/>
<path d="M1239 8056 c-2 -2 -47 -7 -99 -10 -52 -4 -106 -9 -120 -10 -14 -2
-48 -7 -75 -10 -68 -9 -97 -14 -195 -32 -121 -23 -115 -21 -225 -49 -55 -14
-109 -27 -120 -30 -29 -7 -251 -79 -314 -103 -30 -11 -58 -28 -64 -37 -11 -21
-14 -366 -3 -485 4 -47 9 -103 11 -125 3 -50 20 -173 30 -228 3 -15 10 -55 16
-90 36 -207 124 -509 217 -742 67 -168 204 -441 263 -527 11 -14 19 -29 19
-32 0 -3 28 -45 61 -93 54 -77 101 -139 206 -273 30 -38 264 -274 328 -331
269 -238 681 -464 1065 -583 179 -55 323 -93 465 -122 72 -14 137 -27 145 -29
8 -2 51 -8 95 -15 44 -6 91 -13 105 -15 31 -5 102 -14 155 -20 22 -3 50 -7 63
-9 13 -3 53 -8 90 -11 37 -3 78 -7 92 -10 14 -2 52 -7 85 -10 33 -4 76 -9 95
-11 19 -3 50 -7 69 -9 83 -11 121 -16 186 -26 39 -6 81 -13 95 -15 14 -2 43
-7 65 -10 22 -4 107 -22 190 -41 82 -19 155 -35 162 -37 7 -1 15 -5 19 -9 13
-13 -110 -205 -391 -612 -269 -389 -362 -544 -453 -758 -40 -94 -97 -268 -108
-332 -3 -16 -9 -46 -13 -65 -32 -127 -48 -343 -45 -590 2 -214 6 -287 30 -485
6 -54 7 -63 24 -170 20 -132 54 -309 74 -398 9 -37 18 -81 21 -97 3 -16 12
-60 21 -97 40 -179 57 -249 63 -254 8 -9 170 33 332 86 708 232 1289 699 1659
1335 142 243 264 551 326 822 2 10 6 28 9 40 22 93 42 217 50 318 4 41 9 91
10 110 27 258 26 759 0 1000 -5 43 -8 67 -20 170 -6 46 -41 268 -49 305 -2 11
-11 54 -20 95 -22 109 -62 260 -98 375 -18 55 -33 102 -33 105 -1 3 -4 12 -8
20 -3 8 -13 35 -21 60 -18 56 -63 178 -76 205 -5 11 -50 117 -100 235 -107
251 -175 387 -278 560 -133 223 -344 511 -501 684 -112 123 -343 346 -451 436
-75 62 -101 83 -114 95 -58 52 -310 227 -456 317 -378 233 -826 426 -1225 529
-133 35 -163 41 -270 63 -120 24 -120 24 -161 30 -22 3 -55 8 -74 11 -51 8
-98 14 -160 20 -30 3 -73 8 -95 11 -46 6 -571 15 -576 10z"/>
<path d="M8116 3888 c3 -5 10 -6 15 -3 13 9 11 12 -6 12 -8 0 -12 -4 -9 -9z"/>
<path d="M7874 3883 c5 -10 -4 -12 -38 -10 -25 1 -42 -1 -39 -7 3 -5 0 -6 -8
-4 -8 3 -22 1 -31 -4 -12 -6 -18 -5 -18 3 0 8 -4 8 -15 -1 -12 -10 -15 -10
-15 1 0 8 -5 6 -13 -6 -9 -11 -16 -14 -20 -7 -9 13 -47 4 -48 -12 0 -6 -4 -2
-9 9 -5 11 -9 14 -9 7 -1 -7 -5 -10 -11 -7 -5 3 -10 2 -10 -4 0 -5 -10 -13
-21 -16 -17 -6 -19 -9 -8 -16 11 -7 12 -12 2 -28 -11 -17 -10 -19 2 -15 10 4
15 0 15 -12 0 -11 -3 -15 -8 -9 -4 6 -14 10 -22 10 -8 0 -18 4 -22 10 -5 6
-11 5 -18 -5 -9 -13 -10 -13 -10 0 0 13 -1 13 -10 0 -5 -8 -12 -12 -15 -8 -12
11 -54 -33 -48 -50 5 -11 3 -13 -7 -7 -10 6 -12 0 -7 -28 5 -29 3 -37 -10 -37
-13 0 -14 -2 -2 -17 12 -14 12 -16 0 -8 -11 6 -13 3 -9 -13 4 -15 2 -20 -5
-16 -8 5 -8 3 0 -6 10 -11 9 -16 -5 -26 -12 -10 -13 -13 -3 -14 11 0 11 -3 1
-15 -7 -8 -9 -15 -5 -15 4 0 2 -6 -4 -13 -6 -8 -8 -17 -4 -20 3 -4 0 -13 -6
-21 -8 -10 -9 -16 -1 -21 15 -9 13 -28 -2 -19 -11 6 -2 -6 31 -46 2 -3 1 4 -3
15 -5 16 -2 15 14 -5 15 -19 18 -20 13 -6 -5 15 -3 17 8 10 23 -14 42 -14 30
0 -8 10 -4 11 19 8 19 -3 30 0 30 7 0 7 4 10 9 6 5 -3 12 -1 16 5 4 6 11 7 17
4 7 -5 9 -2 6 8 -4 8 0 15 8 15 7 0 10 -5 7 -11 -4 -5 8 0 25 13 18 12 36 20
41 17 5 -3 11 1 15 9 3 8 14 15 25 15 11 0 23 5 26 10 4 6 10 8 15 5 4 -3 11
2 14 11 4 9 13 14 21 10 8 -3 15 -1 15 4 0 5 7 6 17 3 11 -4 14 -3 9 5 -4 7
-2 13 3 13 38 5 72 20 65 30 -3 5 -2 9 3 8 24 -4 43 3 43 17 0 8 4 13 9 9 5
-3 12 -1 16 5 3 5 0 10 -7 10 -11 0 -10 2 0 9 10 6 9 10 -7 14 -12 3 -21 13
-21 24 0 15 -2 16 -10 3 -9 -13 -13 -11 -31 10 -11 14 -18 19 -14 13 4 -8 0
-13 -9 -13 -19 0 -30 17 -14 23 7 2 -7 3 -32 1 -24 -1 -47 2 -51 7 -3 6 -15
11 -26 12 -20 1 -21 27 -1 27 5 0 6 -4 3 -10 -3 -5 1 -10 10 -10 10 0 13 5 9
13 -6 9 -5 9 8 0 8 -7 18 -10 21 -6 4 3 13 1 21 -6 7 -6 28 -13 45 -14 17 -1
33 -9 36 -17 5 -13 7 -13 15 0 7 11 10 12 10 2 0 -7 5 -10 10 -7 6 3 10 1 10
-6 0 -9 3 -9 14 0 11 9 16 9 22 0 5 -8 3 -10 -7 -4 -8 5 -11 4 -6 0 13 -15 49
-17 41 -3 -5 10 -4 10 6 1 10 -9 17 -7 33 8 23 21 28 35 29 96 0 23 5 40 10
37 4 -3 0 10 -11 28 -10 18 -24 32 -30 31 -6 -2 -11 2 -11 7 0 6 -9 10 -21 10
-13 0 -18 -4 -13 -12 5 -9 2 -9 -9 1 -13 10 -17 10 -17 1 0 -10 -3 -10 -15 0
-12 10 -15 10 -15 0 0 -9 -4 -9 -17 1 -11 9 -14 10 -9 2z m-248 -128 c-1 -8
-5 -17 -8 -21 -5 -4 -4 16 1 34 3 9 9 -1 7 -13z m15 -28 c-10 -9 -11 -8 -5 6
3 10 9 15 12 12 3 -3 0 -11 -7 -18z m32 3 c-3 -12 -8 -19 -11 -16 -5 6 5 36
12 36 2 0 2 -9 -1 -20z"/>
<path d="M8154 3882 c3 -5 -10 -8 -29 -7 -18 1 -40 -2 -47 -6 -7 -5 -9 -9 -4
-9 5 0 3 -7 -4 -15 -10 -12 -10 -15 1 -15 11 0 11 -2 -1 -10 -8 -5 -10 -10 -5
-10 14 0 13 -53 0 -62 -6 -5 -5 -8 2 -8 7 0 10 -7 7 -15 -4 -9 0 -15 7 -15 11
0 11 -3 -1 -10 -12 -8 -10 -10 10 -10 20 0 22 -2 10 -10 -12 -8 -11 -10 8 -10
12 0 22 -6 22 -12 1 -8 6 -6 14 4 10 13 15 15 24 6 9 -9 12 -7 13 7 0 12 3 15
6 7 3 -9 9 -10 17 -3 12 10 44 19 74 20 7 1 10 6 6 12 -4 8 0 8 15 0 13 -7 21
-8 21 -2 0 6 7 7 17 4 12 -5 14 -3 8 8 -7 11 -5 11 10 -1 17 -14 18 -13 12 4
-6 16 -5 17 7 7 9 -7 17 -8 20 -2 7 10 46 3 46 -9 0 -4 -8 -7 -17 -7 -40 0
-54 -4 -48 -12 3 -5 0 -13 -6 -17 -8 -4 -9 -3 -5 4 4 7 1 12 -8 12 -9 0 -16
-5 -16 -12 0 -6 -3 -8 -7 -5 -3 4 -13 1 -21 -6 -13 -9 -14 -9 -8 1 4 6 2 12
-3 12 -6 0 -11 -4 -11 -9 0 -4 -19 -14 -42 -20 -24 -7 -52 -19 -63 -27 -17
-13 -18 -16 -5 -24 13 -9 13 -10 0 -10 -9 -1 -6 -5 8 -10 12 -5 22 -14 22 -20
0 -6 5 -8 10 -5 6 3 10 1 10 -6 0 -7 3 -10 6 -6 4 3 21 -1 38 -10 17 -10 34
-17 38 -18 4 0 12 -5 19 -12 6 -6 18 -9 27 -6 8 4 13 2 9 -3 -3 -5 6 -14 19
-21 18 -8 22 -8 17 0 -3 7 4 3 16 -8 13 -11 26 -20 30 -20 3 0 5 -3 4 -7 -1
-3 5 -5 15 -4 9 2 23 -4 30 -13 8 -9 11 -10 7 -4 -4 9 -1 11 9 7 9 -3 16 -10
16 -16 0 -5 5 -6 10 -3 6 3 10 1 10 -5 0 -6 5 -8 10 -5 6 3 10 2 10 -4 0 -5 9
-8 20 -6 11 2 20 -1 20 -6 0 -6 4 -8 9 -5 5 4 11 1 13 -6 2 -6 23 -12 45 -12
23 -1 39 2 37 6 -2 3 1 10 7 14 6 3 9 19 5 35 -3 17 -1 29 5 29 6 0 6 7 -1 20
-6 11 -7 20 -3 20 4 0 1 5 -7 10 -10 6 -11 10 -2 10 6 0 12 5 12 11 0 5 -4 7
-10 4 -8 -5 -15 31 -11 58 0 4 -3 7 -8 7 -5 0 -12 7 -15 16 -6 15 -4 15 10 3
16 -13 16 -12 2 16 -8 17 -14 40 -13 52 1 12 -5 25 -12 28 -8 2 -12 9 -9 13 3
5 -7 15 -22 23 -15 8 -30 18 -34 24 -5 6 -8 5 -8 -4 0 -10 -3 -11 -13 -2 -10
8 -17 7 -25 -1 -9 -9 -12 -9 -12 2 0 9 -5 8 -16 -6 -8 -10 -13 -13 -9 -6 3 6
2 12 -3 12 -6 0 -12 -7 -16 -15 -5 -15 -59 -15 -74 0 -4 4 0 6 8 5 30 -5 51 0
45 10 -3 5 0 7 8 4 8 -3 17 2 21 11 3 10 11 13 18 9 7 -4 10 -4 6 1 -4 4 -2
15 5 23 9 13 9 14 0 8 -8 -4 -13 -2 -13 4 0 6 -4 8 -10 5 -5 -3 -10 -2 -10 4
0 5 -8 10 -17 9 -10 0 -31 4 -48 9 -16 6 -45 9 -62 8 -18 -1 -33 3 -33 7 0 5
-8 8 -17 6 -10 -1 -24 1 -30 5 -9 6 -13 2 -13 -10 0 -15 -2 -14 -16 5 -11 17
-19 20 -28 13 -9 -7 -17 -7 -26 2 -10 9 -11 9 -6 0 9 -16 -10 -17 -20 -2 -4 8
-9 7 -15 -2 -6 -10 -9 -11 -9 -1 0 6 -5 12 -11 12 -5 0 -8 -4 -5 -8z"/>
<path d="M7312 3752 c-12 -2 -20 -8 -17 -13 4 -5 -3 -9 -14 -9 -12 0 -21 -4
-21 -10 0 -5 -9 -10 -20 -10 -10 0 -24 -8 -29 -17 -6 -10 -11 -14 -11 -9 0 5
-7 3 -15 -4 -8 -6 -19 -9 -25 -5 -6 4 -9 1 -8 -7 2 -7 -5 -12 -15 -11 -12 1
-17 -4 -13 -14 3 -8 1 -11 -5 -8 -5 4 -16 1 -24 -5 -8 -7 -15 -9 -15 -4 0 5
-5 2 -10 -6 -5 -8 -14 -15 -20 -15 -6 0 -14 -5 -18 -11 -10 -16 -73 -45 -83
-38 -5 3 -8 1 -7 -4 2 -6 -1 -11 -7 -13 -5 -1 -15 -9 -21 -17 -6 -8 -16 -12
-22 -8 -11 7 -17 -6 -13 -27 1 -5 -3 -6 -8 -3 -11 7 -20 -5 -26 -34 -4 -20 31
-54 47 -44 4 3 8 0 8 -6 0 -7 -7 -9 -16 -6 -13 5 -14 3 -6 -7 8 -10 6 -13 -9
-13 -13 0 -18 5 -14 16 4 13 3 13 -7 -1 -7 -9 -23 -14 -35 -13 -14 3 -22 -1
-20 -9 1 -6 -4 -11 -10 -9 -7 1 -14 -6 -15 -15 -2 -33 -4 -38 -11 -50 -5 -7
-10 -23 -12 -34 -6 -28 -8 -30 -25 -19 -12 8 -12 10 4 10 14 0 16 3 7 13 -6 8
-8 17 -4 20 3 4 1 7 -6 7 -7 0 -10 4 -7 9 3 5 -2 11 -13 14 -21 5 -65 -16 -55
-26 7 -7 -11 -11 -29 -8 -5 1 -6 -3 -2 -9 3 -5 1 -10 -5 -10 -6 0 -9 -4 -6 -8
3 -5 -8 -19 -25 -32 -16 -14 -29 -29 -29 -35 0 -5 -14 -25 -31 -42 -16 -18
-27 -33 -24 -33 3 0 -6 -11 -20 -24 -15 -14 -24 -30 -20 -35 3 -6 -1 -11 -10
-11 -9 0 -13 -4 -10 -10 3 -5 1 -10 -5 -10 -6 0 -9 -4 -5 -10 3 -5 0 -19 -7
-30 -11 -17 -11 -22 2 -30 8 -5 11 -10 6 -10 -4 0 2 -8 15 -18 17 -15 19 -21
9 -27 -9 -5 -11 -4 -6 3 4 7 3 12 -3 12 -5 0 -12 -6 -14 -12 -4 -10 -8 -9 -16
2 -10 13 -11 13 -11 0 0 -13 -1 -13 -10 0 -6 10 -10 11 -10 3 0 -7 -7 -13 -16
-13 -8 0 -13 -4 -10 -9 3 -5 -1 -12 -10 -15 -9 -4 -14 -13 -10 -21 3 -8 2 -15
-3 -15 -4 0 -14 -18 -21 -40 -7 -22 -17 -40 -21 -40 -4 0 -6 -9 -4 -20 2 -11
0 -18 -6 -15 -5 4 -9 -3 -9 -14 0 -12 -6 -21 -12 -21 -10 0 -10 -2 0 -9 11 -7
10 -9 -3 -15 -9 -3 -13 -10 -10 -16 3 -5 1 -10 -5 -10 -6 0 -9 -4 -5 -9 3 -5
1 -12 -5 -16 -6 -4 -8 -10 -5 -15 7 -12 -5 -41 -15 -35 -5 3 -7 -6 -4 -20 2
-14 0 -25 -6 -25 -5 0 -10 -5 -10 -11 0 -5 5 -7 10 -4 6 3 10 -3 10 -15 0 -12
5 -18 10 -15 6 3 10 0 10 -7 0 -9 3 -9 11 2 7 12 9 8 7 -15 -2 -18 -8 -29 -15
-27 -7 1 -14 -6 -15 -15 -2 -33 -4 -38 -11 -50 -4 -6 -1 -13 5 -15 7 -3 14
-14 14 -26 3 -40 4 -43 14 -37 6 3 10 1 10 -5 0 -6 4 -9 8 -6 5 3 9 -1 9 -9 0
-11 -8 -9 -31 8 -30 22 -66 25 -66 6 0 -6 -4 -8 -9 -5 -22 14 -38 -98 -17
-123 8 -11 8 -13 0 -8 -7 4 -14 -3 -16 -18 -3 -13 -1 -22 3 -19 13 8 11 -10
-3 -25 -10 -11 -10 -13 0 -7 7 5 12 1 12 -9 0 -9 -4 -13 -10 -10 -7 4 -7 -3 0
-20 13 -33 13 -38 -1 -29 -8 5 -8 1 0 -13 6 -11 8 -23 4 -26 -3 -4 0 -14 8
-24 8 -9 9 -14 2 -10 -6 4 -14 3 -18 -3 -3 -5 2 -10 12 -10 14 0 15 -2 4 -9
-8 -6 -11 -16 -6 -31 6 -17 4 -21 -6 -15 -8 5 -6 -1 4 -12 14 -16 15 -23 6
-29 -8 -5 -10 -3 -4 7 5 8 4 10 0 6 -13 -11 -15 -38 -3 -31 6 4 8 -2 3 -16 -5
-17 -4 -21 6 -16 8 4 6 1 -3 -6 -15 -13 -15 -15 0 -26 9 -7 11 -10 5 -7 -8 4
-13 -1 -13 -11 0 -10 3 -14 7 -11 3 4 11 -3 17 -14 6 -12 14 -21 19 -20 4 0
18 1 32 1 16 0 25 6 25 15 0 9 7 18 15 21 8 4 12 10 9 15 -9 16 23 10 36 -7 8
-8 9 -14 3 -12 -5 2 -27 -15 -49 -36 -21 -22 -32 -36 -24 -31 12 6 13 5 3 -6
-15 -15 -18 -73 -4 -65 5 4 7 -3 4 -15 -4 -15 0 -22 16 -26 11 -3 18 -9 15
-14 -3 -5 0 -9 5 -9 6 0 11 -8 11 -17 0 -12 -3 -14 -8 -6 -9 15 -54 13 -49 -2
2 -5 -3 -16 -12 -23 -12 -10 -13 -15 -3 -18 6 -3 12 -10 12 -15 0 -6 -6 -7
-12 -3 -7 4 -5 -2 5 -13 9 -11 14 -23 10 -26 -3 -4 -1 -7 4 -7 6 0 10 -12 8
-26 -1 -15 3 -28 11 -31 8 -3 14 -11 14 -19 0 -8 5 -23 10 -34 6 -11 15 -29
20 -40 6 -11 10 -27 10 -35 0 -8 5 -15 10 -15 6 0 10 -14 10 -31 0 -16 4 -28
8 -25 4 2 14 -9 21 -25 7 -16 17 -27 22 -23 5 3 9 0 9 -7 0 -7 3 -9 7 -6 3 4
12 2 20 -4 10 -9 13 -8 13 0 0 8 8 10 21 6 15 -5 19 -4 15 4 -4 6 -4 11 1 10
4 -1 17 -1 28 0 17 1 18 3 5 11 -13 8 -12 10 3 10 20 0 35 12 60 50 16 24 16
28 -2 60 -11 19 -24 34 -31 32 -6 -1 -9 2 -5 8 3 5 -1 13 -9 16 -9 3 -13 11
-10 16 4 6 -1 8 -13 4 -17 -5 -20 -2 -18 19 2 14 -1 23 -6 19 -5 -3 -7 -10 -4
-15 4 -5 1 -9 -5 -9 -6 0 -10 6 -8 14 2 8 -6 22 -18 33 -11 10 -23 26 -27 35
-4 11 -13 16 -24 12 -15 -5 -16 -4 -3 5 13 9 13 11 0 12 -8 1 -19 1 -23 0 -5
-1 -6 3 -2 9 8 13 38 -3 63 -35 11 -13 23 -21 27 -17 5 4 4 1 0 -7 -6 -11 -4
-13 11 -7 10 4 15 4 12 0 -9 -8 63 -74 80 -74 7 0 10 -4 7 -10 -3 -5 3 -10 14
-10 12 0 21 3 22 8 1 15 7 37 14 55 4 9 3 17 -2 17 -5 0 -8 41 -8 91 0 50 -4
93 -9 96 -5 4 -6 0 -1 -7 6 -9 4 -11 -5 -5 -10 6 -9 11 5 22 14 10 15 13 4 13
-8 0 -15 9 -15 19 0 11 5 17 10 14 6 -4 6 1 1 13 -8 19 -15 94 -15 147 0 16
-3 26 -8 23 -11 -6 -9 34 1 52 5 7 4 12 -2 12 -6 0 -11 7 -11 15 0 8 -7 15
-16 15 -9 0 -12 5 -8 13 6 9 4 9 -7 1 -8 -5 -21 -10 -29 -10 -14 1 -31 -11
-90 -64 -15 -14 -37 -31 -48 -39 -12 -8 -18 -19 -15 -24 3 -5 -3 -7 -12 -5
-24 4 -32 28 -10 28 9 0 13 5 10 10 -3 6 -2 10 2 10 20 0 143 119 143 138 0 8
5 10 12 6 8 -5 9 -2 5 9 -3 10 -3 17 1 17 12 0 4 84 -8 88 -6 2 -10 9 -10 15
0 7 -15 26 -34 44 -19 17 -32 34 -29 37 6 5 -12 10 -29 7 -4 0 -4 7 -1 16 5
12 3 14 -7 8 -9 -5 -11 -4 -6 3 4 7 3 12 -2 12 -15 0 -53 41 -47 51 8 12 54
-22 55 -39 0 -7 5 -10 10 -7 6 3 10 -1 10 -9 0 -9 5 -16 10 -16 6 0 20 -9 32
-20 12 -11 28 -20 35 -20 8 0 11 -5 8 -11 -5 -7 3 -9 24 -6 38 6 59 22 60 45
1 27 8 77 11 77 1 0 3 30 4 67 1 37 5 71 9 74 4 4 3 12 -3 18 -5 7 -5 17 2 26
8 12 9 12 4 -3 -3 -10 -2 -15 3 -12 16 10 8 43 -9 38 -12 -4 -11 -2 2 10 13
10 15 16 6 25 -7 7 -8 12 -2 12 5 0 11 28 11 63 1 34 3 77 5 95 2 17 0 32 -5
32 -5 0 -6 8 -3 17 4 10 4 14 0 10 -4 -4 -13 -2 -21 4 -9 8 -13 8 -13 1 0 -7
-7 -9 -17 -5 -12 5 -15 2 -10 -10 4 -12 1 -15 -14 -12 -12 2 -19 -2 -19 -11 0
-15 -12 -19 -23 -7 -4 3 15 27 41 52 67 64 69 114 6 149 -9 5 -12 15 -8 26 4
10 10 14 13 9 10 -13 54 -36 46 -24 -3 6 1 11 10 11 10 0 13 -5 9 -12 -4 -7 2
-5 13 5 11 9 23 14 28 10 4 -5 5 -2 1 5 -4 7 -1 12 9 12 9 0 14 4 10 9 -3 5 0
13 6 17 8 4 7 9 -2 15 -11 6 -10 9 4 15 15 5 15 9 5 22 -9 11 -9 13 -1 9 6 -4
14 -3 18 3 3 5 1 10 -5 10 -7 0 -8 6 0 19 5 11 9 30 7 43 -1 14 3 22 11 20 8
-1 11 6 8 21 -2 13 0 30 6 38 8 11 9 11 5 -3 -3 -9 -1 -19 6 -22 9 -3 8 -5 -1
-5 -9 -1 -10 -6 -3 -20 13 -23 3 -35 -16 -20 -16 14 -17 5 -3 -22 6 -10 7 -19
3 -19 -4 0 -8 -17 -7 -38 0 -20 -3 -42 -8 -48 -5 -7 -3 -18 6 -27 8 -8 12 -18
8 -23 -4 -5 3 0 16 11 20 16 25 17 32 5 8 -12 10 -12 10 3 0 10 4 15 10 12 5
-3 24 7 42 24 18 16 43 36 57 43 15 7 36 23 48 36 12 12 25 22 28 22 11 -1 85
53 85 62 0 5 5 6 10 3 6 -3 10 -3 10 2 0 4 18 19 40 33 22 13 40 28 40 32 0 4
6 8 14 8 8 0 18 9 21 20 4 11 11 18 16 15 5 -4 9 8 9 25 0 23 -5 33 -20 37
-11 3 -17 10 -13 16 4 6 0 8 -10 4 -9 -3 -17 -1 -19 4 -2 5 -13 11 -26 12 -12
0 -22 4 -22 8 0 7 -68 24 -83 21 -4 -1 -10 5 -14 14 -5 13 -7 13 -14 2 -5 -8
-9 -9 -9 -2 0 6 7 17 15 24 15 12 21 4 16 -23 -1 -5 3 -6 9 -2 6 3 7 12 3 18
-3 7 4 3 17 -8 14 -12 20 -14 15 -5 -8 13 -7 13 8 1 9 -7 17 -10 17 -6 0 4 8
1 17 -6 15 -12 16 -12 8 1 -8 13 -7 13 8 1 10 -8 20 -11 24 -8 3 4 12 2 19 -4
8 -6 20 -9 28 -6 11 4 13 1 9 -11 -6 -15 -5 -15 10 -3 13 10 17 10 17 1 0 -10
3 -10 15 0 12 10 15 10 15 -1 0 -8 6 -6 16 7 8 10 12 12 8 4 -7 -13 -5 -13 9
-1 9 7 17 11 17 7 0 -3 8 2 18 12 11 9 17 20 15 25 -2 4 2 10 10 13 8 3 14 13
12 22 -1 9 2 20 7 23 5 3 10 16 11 27 1 12 6 22 12 22 5 0 3 5 -5 10 -13 8
-13 10 2 10 11 0 15 5 12 15 -4 8 0 23 7 32 12 14 12 16 -1 8 -12 -6 -13 -5
-2 6 6 7 12 23 12 35 0 13 10 30 23 40 14 11 16 14 5 11 -10 -4 -20 -2 -23 4
-4 5 -1 8 6 7 6 -2 14 3 17 11 3 9 0 11 -9 6 -11 -6 -11 -5 -3 4 12 13 7 58
-7 67 -13 8 -41 11 -67 6z m-382 -372 c0 -5 -4 -10 -10 -10 -5 0 -10 5 -10 10
0 6 5 10 10 10 6 0 10 -4 10 -10z m-201 -186 c-6 -8 -17 -14 -23 -14 -6 0 -3
5 7 11 9 6 14 15 11 21 -4 7 -2 8 5 4 9 -6 9 -11 0 -22z m-14 -34 c3 -5 1 -10
-4 -10 -6 0 -11 5 -11 10 0 6 2 10 4 10 3 0 8 -4 11 -10z m-225 -280 c0 -5 -7
-10 -15 -10 -8 0 -15 5 -15 10 0 6 7 10 15 10 8 0 15 -4 15 -10z m-46 -249 c3
-5 -1 -11 -9 -15 -8 -3 -17 0 -21 6 -4 7 -3 8 4 4 7 -4 12 -2 12 3 0 13 7 14
14 2z m-27 -35 c5 -4 4 -7 -2 -6 -23 5 -36 -1 -29 -12 4 -7 3 -9 -1 -5 -16 14
-13 33 6 32 10 -1 22 -5 26 -9z m-50 -40 c0 -8 -6 -12 -15 -8 -11 4 -13 1 -7
-8 5 -9 4 -11 -4 -6 -9 6 -9 11 0 22 15 18 26 18 26 0z m-50 -47 c-9 -6 -14
-16 -11 -22 4 -7 1 -7 -7 1 -12 11 -11 15 4 23 9 6 14 16 11 22 -4 7 -1 7 7
-1 12 -11 11 -15 -4 -23z m-33 -35 c3 -8 2 -12 -4 -9 -6 3 -10 1 -10 -6 0 -7
-2 -10 -5 -7 -5 5 4 38 10 38 2 0 6 -7 9 -16z m-3 -247 c-10 -9 -11 -8 -5 6 3
10 9 15 12 12 3 -3 0 -11 -7 -18z m12 -752 c-3 -9 -8 -14 -10 -11 -3 3 -2 9 2
15 9 16 15 13 8 -4z m56 -41 c14 -12 -19 -1 -35 12 -18 14 -18 14 6 3 14 -6
27 -13 29 -15z"/>
<path d="M8730 3740 c0 -5 -6 -10 -12 -10 -12 0 -13 -13 -9 -98 1 -7 5 -11 10
-8 4 3 7 -10 6 -30 -1 -19 3 -38 9 -42 6 -4 12 -16 14 -27 5 -39 9 -60 17 -77
4 -9 3 -22 -1 -29 -4 -8 -3 -9 5 -5 11 7 33 -32 24 -46 -2 -4 4 -5 13 -1 10 4
15 2 11 -3 -3 -5 8 -17 24 -27 17 -9 27 -12 24 -7 -3 6 1 7 9 4 9 -3 13 -11 9
-18 -4 -6 0 -6 9 2 13 10 17 10 21 0 4 -10 6 -10 6 1 1 11 4 11 18 0 11 -10
14 -10 9 -1 -6 11 0 14 20 11 4 0 11 5 15 13 6 8 9 9 9 1 0 -8 10 -7 32 4 17
9 42 17 55 18 14 0 28 7 33 15 8 12 10 12 10 1 0 -11 3 -11 15 -1 8 7 15 9 15
4 0 -5 5 -1 11 9 8 14 14 15 24 7 10 -8 18 -5 33 14 10 14 22 22 26 19 3 -3 6
-1 6 5 0 7 -4 12 -10 12 -5 0 -10 7 -10 16 0 17 -23 44 -39 44 -6 0 -15 8 -20
18 -5 10 -25 24 -45 32 -20 7 -36 20 -36 27 0 8 -4 11 -10 8 -5 -3 -10 -1 -10
5 0 6 -4 8 -10 5 -5 -3 -10 -1 -10 6 0 7 -3 9 -7 6 -3 -4 -12 2 -20 13 -8 11
-22 20 -32 20 -11 0 -22 7 -25 16 -3 8 -10 12 -16 9 -6 -3 -17 1 -26 9 -9 9
-20 14 -25 11 -5 -4 -9 -1 -9 6 0 6 -8 9 -20 6 -14 -3 -20 0 -20 10 0 13 -2
13 -17 2 -9 -8 -14 -9 -10 -3 12 21 -18 36 -47 24 -18 -6 -25 -6 -21 0 3 6 -1
10 -9 10 -9 0 -16 -4 -16 -10z"/>
<path d="M7736 3711 c9 -9 34 -9 34 -1 0 5 -9 8 -20 7 -10 -1 -17 -3 -14 -6z"/>
<path d="M7934 3555 c-4 -8 -10 -15 -16 -15 -5 0 -6 6 -2 13 5 8 3 8 -9 -2 -9
-7 -14 -18 -10 -25 3 -6 3 -8 -2 -4 -4 4 -15 2 -23 -5 -13 -10 -14 -9 -8 1 7
11 4 12 -13 3 -11 -7 -21 -16 -21 -21 0 -6 -5 -10 -11 -10 -5 0 -7 6 -3 13 4
6 -5 1 -21 -13 -16 -14 -25 -20 -22 -14 4 6 -9 4 -27 -5 -19 -9 -32 -18 -31
-21 2 -3 -6 -7 -17 -7 -12 -1 -24 -7 -28 -13 -4 -7 -10 -11 -14 -11 -23 3 -36
0 -31 -8 3 -5 1 -12 -5 -16 -5 -3 -10 0 -10 7 -1 8 -7 5 -16 -7 -8 -11 -17
-19 -19 -17 -13 7 -34 0 -53 -18 -12 -12 -22 -16 -22 -9 0 6 -9 1 -21 -12 -11
-13 -17 -18 -13 -10 5 10 3 12 -5 7 -7 -5 -10 -15 -7 -23 3 -8 1 -11 -4 -8 -6
3 -13 -2 -17 -11 -4 -10 -2 -19 5 -22 7 -2 10 -8 6 -13 -3 -5 0 -9 6 -9 7 0
10 -6 7 -14 -4 -9 0 -13 11 -12 9 2 23 -3 30 -11 8 -7 18 -11 23 -8 5 4 9 1 9
-6 0 -8 5 -7 17 2 11 10 14 10 9 2 -4 -8 -1 -13 8 -13 9 0 16 -5 16 -11 0 -5
5 -7 10 -4 6 4 22 -1 36 -10 13 -9 29 -13 33 -10 5 3 15 -1 23 -8 7 -8 21 -13
31 -11 10 1 21 -4 24 -12 3 -8 8 -12 12 -9 4 2 19 -2 34 -10 15 -8 27 -11 27
-8 0 3 6 0 13 -6 8 -6 17 -8 20 -4 4 3 7 1 7 -6 0 -8 7 -11 15 -7 9 3 18 -1
22 -10 5 -13 7 -13 14 -2 7 10 9 11 9 0 0 -7 5 -10 10 -7 6 3 10 1 10 -6 0 -8
3 -9 13 0 8 6 16 9 19 6 2 -3 15 7 29 21 16 18 20 28 12 31 -10 3 -9 8 2 20
12 12 13 18 4 29 -9 11 -9 14 1 14 7 0 10 6 7 14 -3 7 0 19 6 26 9 10 9 11 -1
5 -16 -8 -13 26 3 38 7 5 7 10 0 15 -9 6 -11 25 -5 45 7 20 5 33 -4 46 -8 11
-8 13 1 8 14 -9 15 31 1 50 -5 6 -5 14 1 17 10 7 9 25 -2 44 -5 7 -3 12 4 12
8 0 6 6 -4 18 -10 10 -14 22 -10 26 4 4 -1 4 -12 0 -14 -6 -17 -4 -13 8 5 11
0 14 -19 10 -18 -3 -24 -1 -19 7 4 6 5 11 1 11 -3 0 -8 -7 -11 -15z"/>
<path d="M8122 3550 c-21 -11 -28 -20 -20 -23 9 -4 7 -6 -4 -6 -24 -1 -32 -19
-17 -37 10 -12 9 -13 -7 -7 -18 7 -18 6 -1 -20 16 -25 16 -28 2 -34 -13 -5
-14 -7 -3 -14 10 -7 10 -9 -2 -9 -13 0 -13 -1 0 -10 13 -9 13 -10 0 -10 -13 0
-13 -1 0 -10 13 -9 13 -11 0 -20 -13 -9 -13 -10 0 -10 9 0 11 -3 5 -8 -6 -4
-9 -18 -7 -32 1 -14 3 -33 3 -43 0 -10 5 -15 11 -11 7 5 8 2 3 -7 -13 -20 -13
-49 -1 -42 6 4 5 -1 -3 -10 -7 -9 -9 -17 -3 -17 5 0 13 -7 16 -16 3 -8 2 -12
-3 -9 -5 3 -12 1 -16 -5 -3 -5 -1 -10 5 -10 6 0 9 -4 5 -9 -3 -5 -1 -12 5 -16
6 -4 8 -9 6 -13 -2 -4 2 -13 10 -20 8 -7 14 -10 14 -5 0 4 7 -2 15 -13 11 -14
14 -15 15 -4 0 13 1 13 10 0 7 -12 10 -12 10 -1 0 7 6 11 15 7 8 -3 15 -1 15
4 0 6 9 10 21 10 11 0 17 5 14 10 -9 14 8 13 23 -2 9 -9 12 -8 12 7 0 10 3 15
7 12 3 -4 13 -1 21 6 13 9 14 9 8 0 -5 -9 -2 -11 8 -7 9 3 16 10 16 16 0 5 5
6 10 3 6 -3 10 -1 10 5 0 6 5 8 10 5 6 -3 10 -1 10 5 0 6 5 8 10 5 6 -4 16 -2
23 3 7 6 21 12 32 14 11 1 23 7 26 11 3 4 16 9 27 10 12 1 22 5 22 10 0 4 8 7
18 6 33 -3 44 1 39 15 -4 10 -1 13 9 9 8 -3 21 0 29 7 8 6 19 9 25 5 5 -3 10
0 10 8 0 8 8 18 18 22 16 7 15 8 -3 15 -19 8 -19 9 -1 9 17 1 17 3 -4 21 -15
13 -18 20 -9 20 9 0 6 5 -6 12 -11 6 -26 18 -32 26 -8 10 -13 11 -13 4 0 -7
-5 -12 -11 -12 -5 0 -7 5 -4 10 3 6 -3 10 -14 10 -11 0 -23 5 -26 10 -4 6 -11
8 -16 5 -5 -4 -9 -2 -9 4 0 6 -11 13 -25 17 -14 3 -25 10 -25 15 0 5 -7 6 -15
3 -8 -4 -15 -1 -15 6 0 6 -4 8 -10 5 -5 -3 -10 -1 -10 4 0 6 -3 10 -7 10 -15
-3 -73 23 -73 32 0 5 -3 8 -7 8 -18 -3 -34 2 -30 9 3 4 -6 8 -20 9 -14 0 -38
10 -53 21 -18 14 -31 17 -37 11 -6 -6 -15 -4 -24 8 -13 17 -13 17 6 3 19 -14
19 -14 6 3 -7 9 -14 16 -15 16 0 -1 -16 -9 -34 -19z"/>
<path d="M9171 3384 c0 -11 3 -14 6 -6 3 7 2 16 -1 19 -3 4 -6 -2 -5 -13z"/>
<path d="M9246 3381 c-3 -5 -14 -8 -24 -6 -9 1 -23 -2 -29 -7 -7 -6 -20 -8
-28 -4 -9 3 -18 -1 -22 -9 -4 -13 -8 -13 -21 -3 -9 7 -13 8 -10 3 4 -6 -5 -15
-18 -22 -20 -9 -24 -9 -25 5 0 12 -3 10 -10 -6 -7 -18 -14 -22 -29 -17 -13 4
-20 2 -20 -6 0 -7 -3 -9 -7 -6 -3 4 -12 2 -20 -4 -7 -6 -13 -8 -13 -5 0 11
-25 -16 -39 -42 -7 -13 -8 -22 -2 -22 6 0 8 -8 4 -17 -3 -10 -3 -15 2 -11 4 4
13 2 20 -5 31 -29 76 -62 78 -57 2 3 15 -6 29 -20 38 -36 56 -50 63 -50 6 0
23 -13 55 -42 10 -9 21 -14 24 -10 3 3 6 -1 6 -8 0 -7 3 -11 6 -7 4 3 12 1 19
-6 32 -30 54 -45 59 -40 3 3 8 -2 12 -11 3 -9 12 -16 20 -16 8 0 14 -4 14 -10
0 -5 7 -10 15 -10 8 0 15 -6 15 -12 0 -10 3 -9 9 1 7 11 9 11 14 0 4 -11 6
-11 6 -1 1 7 6 10 13 6 7 -5 9 -2 5 8 -3 9 -3 19 1 22 10 10 11 36 2 36 -5 0
-7 9 -5 20 2 11 0 20 -5 20 -5 0 -7 7 -4 15 3 8 2 20 -2 27 -8 13 -11 22 -18
63 -2 11 -7 28 -11 37 -4 9 -4 21 -1 27 3 5 2 11 -4 13 -6 2 -12 12 -14 23 -2
11 -8 29 -12 39 -6 15 -4 17 7 11 9 -6 8 0 -4 19 -11 15 -17 37 -14 47 3 11 1
16 -4 13 -6 -3 -19 4 -30 17 -10 12 -19 19 -19 14 0 -4 -6 -2 -14 4 -9 7 -17
8 -20 2z"/>
<path d="M9389 3302 c-15 -18 -20 -72 -7 -72 4 0 8 -5 8 -11 0 -5 -6 -7 -12
-3 -7 4 -4 -4 7 -17 14 -16 21 -38 20 -66 0 -23 4 -41 10 -40 5 1 10 -8 11
-20 1 -13 2 -30 3 -39 1 -9 6 -12 14 -8 8 5 8 2 -2 -9 -7 -9 -9 -17 -4 -17 5
0 10 -12 11 -27 1 -15 6 -29 10 -32 4 -3 7 -16 6 -28 -1 -14 4 -23 12 -23 8 0
14 -4 14 -8 0 -5 11 -14 24 -20 19 -8 30 -7 54 8 16 10 33 16 36 13 3 -4 6 0
6 7 0 7 3 10 6 7 4 -4 14 2 23 11 9 10 25 24 36 30 12 7 14 12 6 12 -11 0 -11
3 -1 15 10 12 9 16 -3 21 -9 3 -14 14 -12 25 2 10 -1 18 -6 16 -6 -1 -19 13
-28 30 -10 18 -22 29 -26 25 -5 -4 -5 1 -2 11 4 11 3 16 -3 12 -6 -3 -10 1
-10 10 0 9 -4 13 -10 10 -5 -3 -10 1 -10 9 0 9 -4 16 -10 16 -5 0 -10 5 -10
10 0 6 -13 23 -28 38 -16 15 -27 33 -24 40 2 7 -2 12 -10 12 -7 0 -22 12 -33
26 -28 38 -49 46 -66 26z"/>
<path d="M7356 3189 c5 -8 -10 -13 -29 -10 -5 1 -5 -4 -1 -10 3 -6 1 -15 -5
-19 -7 -4 -13 -17 -14 -28 -1 -12 -6 -22 -12 -22 -6 0 -7 -3 0 -8 15 -10 18
-35 4 -26 -9 5 -10 1 -7 -14 4 -12 2 -24 -3 -27 -4 -3 -5 -13 -2 -22 4 -11 3
-14 -5 -9 -8 5 -10 2 -6 -8 3 -9 11 -13 18 -9 6 3 2 -3 -8 -15 -14 -17 -16
-22 -5 -22 8 0 10 -3 4 -8 -11 -8 -14 -17 -17 -64 -1 -18 -4 -37 -7 -43 -5 -9
-7 -32 -10 -98 -1 -19 -5 -26 -13 -21 -10 6 -10 4 0 -7 14 -15 16 -33 3 -25
-5 4 -4 -5 2 -19 7 -14 16 -25 20 -25 5 0 5 -4 2 -10 -3 -5 -1 -10 4 -10 21 0
26 -2 39 -12 8 -7 16 -7 25 1 8 6 17 8 20 4 4 -3 7 -1 7 6 0 7 5 9 10 6 6 -3
10 -1 10 6 0 7 3 9 7 6 3 -4 12 1 20 11 10 11 12 12 8 2 -4 -10 -2 -9 8 3 8 9
19 17 26 17 6 0 11 5 11 12 0 6 3 8 6 5 4 -4 15 2 25 14 12 14 18 16 22 7 4
-10 6 -10 6 0 1 6 6 12 12 12 6 0 17 7 26 15 8 8 19 13 24 10 5 -4 9 -1 9 4 0
6 5 11 10 11 6 0 20 9 32 20 12 11 30 20 40 20 10 0 18 5 18 11 0 6 9 9 19 6
14 -3 18 -1 14 9 -3 9 2 14 15 14 12 0 26 8 31 18 6 9 11 14 11 9 0 -4 11 0
24 9 14 8 29 15 33 15 4 -1 8 4 8 9 0 6 6 15 14 19 8 5 10 14 6 22 -6 9 -3 11
10 5 14 -5 16 -4 7 7 -9 10 -8 17 1 27 9 10 9 11 0 6 -7 -4 -13 -2 -13 4 0 18
-29 42 -41 34 -8 -4 -9 -3 -5 4 6 11 -13 17 -37 13 -5 -1 -6 3 -2 9 3 5 -2 10
-12 10 -11 0 -23 4 -28 9 -6 5 -19 11 -30 13 -11 1 -26 9 -33 16 -8 7 -18 10
-23 7 -5 -4 -9 -1 -9 4 0 6 -6 10 -12 8 -7 -1 -12 4 -10 11 1 6 -2 12 -7 12
-5 0 -12 -6 -14 -12 -4 -10 -6 -10 -6 0 -1 6 -13 12 -27 12 -17 0 -23 4 -18
12 5 8 2 9 -9 5 -10 -4 -17 -2 -17 4 0 6 -7 9 -15 5 -8 -3 -15 -2 -15 2 0 12
-70 35 -112 37 -21 1 -35 -1 -32 -6z"/>
<path d="M8664 3188 c-3 -5 -10 -6 -15 -3 -5 4 -9 1 -9 -6 0 -6 -8 -9 -20 -6
-11 3 -20 2 -20 -1 0 -4 -14 -15 -31 -24 -17 -10 -27 -12 -23 -5 4 7 -1 6 -12
-3 -30 -24 -67 -43 -60 -31 4 6 -16 -1 -43 -15 -28 -13 -53 -29 -56 -33 -3 -5
-17 -8 -31 -6 -15 1 -28 -3 -31 -11 -3 -8 -9 -12 -13 -9 -5 3 -15 -2 -24 -11
-9 -8 -20 -12 -26 -9 -5 3 -10 -1 -10 -9 0 -9 -4 -16 -10 -16 -5 0 -6 -7 -3
-17 4 -11 3 -14 -5 -9 -7 4 -12 4 -12 -1 0 -15 40 -73 50 -73 6 0 9 -4 5 -9
-3 -5 0 -13 6 -17 8 -4 9 -3 5 4 -11 18 5 14 18 -3 6 -9 21 -17 34 -18 12 0
22 -7 22 -14 0 -7 3 -12 8 -12 19 3 32 -3 62 -30 19 -16 40 -27 47 -24 7 3 13
0 13 -6 0 -6 7 -11 15 -11 8 0 15 -5 15 -11 0 -5 4 -8 9 -5 5 3 14 -1 21 -9 7
-8 16 -12 21 -9 5 3 9 -2 9 -12 0 -11 6 -15 18 -12 12 3 24 -2 31 -14 6 -10
16 -16 21 -13 6 3 10 1 10 -4 0 -6 9 -11 20 -11 11 0 20 -4 20 -8 0 -13 50
-33 62 -26 6 4 8 2 5 -3 -4 -6 4 -10 18 -10 14 0 25 5 25 11 0 6 5 4 10 -4 6
-9 10 -10 10 -3 0 6 7 19 16 27 11 11 12 16 3 16 -10 0 -10 3 -1 12 16 16 15
31 0 22 -10 -6 -10 -4 -2 7 12 16 12 29 0 48 -7 11 -6 12 5 6 12 -8 12 -6 0 8
-9 12 -10 17 -2 17 7 0 9 5 6 10 -4 6 -11 7 -17 4 -7 -5 -8 -2 -3 7 11 16 14
48 6 53 -3 2 -6 22 -5 45 0 22 -3 38 -8 35 -4 -3 -8 2 -8 11 0 10 5 13 13 9 6
-4 3 3 -8 16 -11 13 -14 20 -7 16 6 -4 12 -2 12 3 0 6 -4 11 -9 11 -5 0 -7 9
-4 20 3 13 0 20 -8 20 -11 0 -11 2 1 10 13 9 13 10 0 10 -13 0 -13 1 0 10 10
6 11 10 3 10 -8 0 -13 13 -13 30 0 36 -26 80 -47 80 -8 0 -12 3 -10 8 3 4 -11
7 -29 8 -19 0 -37 -3 -40 -8z"/>
<path d="M7172 3173 c-6 -2 -9 -10 -6 -15 4 -6 2 -8 -4 -4 -6 3 -18 -1 -26
-10 -9 -8 -16 -12 -16 -7 0 4 -5 0 -11 -9 -5 -10 -17 -18 -24 -18 -8 0 -15 -4
-15 -8 0 -5 -16 -17 -35 -28 -19 -10 -35 -22 -35 -27 0 -4 -4 -5 -10 -2 -5 3
-10 1 -10 -4 0 -6 -7 -11 -16 -11 -8 0 -12 -4 -9 -10 3 -5 0 -10 -8 -10 -7 0
-29 -13 -47 -30 -18 -16 -38 -30 -43 -30 -5 0 -18 -10 -29 -22 -11 -13 -17
-16 -13 -8 4 8 -5 3 -18 -12 -14 -15 -28 -24 -31 -21 -3 3 -8 -2 -12 -11 -3
-9 -12 -16 -18 -16 -7 0 -13 -6 -14 -12 0 -7 -3 -25 -5 -40 -2 -15 -1 -25 3
-23 4 2 12 -7 19 -21 6 -14 16 -22 21 -19 6 3 10 -1 10 -10 0 -9 5 -13 11 -10
5 4 19 -1 29 -10 10 -9 24 -14 31 -9 8 4 10 3 5 -4 -4 -7 -1 -12 7 -12 8 0 20
-7 27 -15 6 -8 15 -14 18 -13 10 2 46 -14 52 -23 3 -4 12 -9 20 -11 8 -2 21
-9 28 -16 8 -7 18 -10 23 -7 5 4 9 1 9 -4 0 -6 9 -11 20 -11 11 0 20 -4 20
-10 0 -16 70 -12 76 5 4 8 10 13 14 10 7 -4 13 8 26 55 3 8 5 26 5 40 1 14 6
31 13 39 9 12 8 13 -4 6 -12 -7 -13 -6 -4 6 6 8 10 24 9 37 -1 12 3 22 9 22 6
0 4 5 -4 10 -8 5 -10 10 -3 10 6 0 10 8 9 18 -2 9 2 20 8 24 7 5 6 8 -3 8 -11
0 -10 4 5 16 10 8 14 13 7 10 -6 -4 -14 -2 -18 4 -3 5 -1 10 5 10 6 0 8 5 5
10 -3 6 -2 10 4 10 6 0 8 7 4 16 -3 9 0 20 8 25 9 5 9 9 2 9 -6 0 -10 8 -8 18
2 9 4 17 5 17 5 0 11 45 10 73 0 25 3 32 12 26 8 -5 8 -1 -2 12 -27 34 -37 43
-44 37 -3 -4 -6 -1 -6 5 0 12 -15 14 -38 5z"/>
<path d="M8865 3157 c-14 -17 -19 -34 -17 -63 1 -21 3 -49 2 -62 0 -14 4 -20
11 -16 8 4 8 1 1 -13 -6 -10 -7 -25 -2 -33 4 -8 9 -33 11 -55 1 -22 7 -45 11
-52 5 -6 4 -14 -2 -18 -7 -4 -8 -11 -2 -18 10 -13 13 -31 13 -84 0 -18 5 -33
10 -33 6 0 9 -8 8 -17 -5 -58 2 -78 37 -102 30 -21 37 -22 45 -10 5 8 9 9 9 4
0 -6 9 -11 19 -11 11 0 17 4 15 8 -3 4 2 8 11 8 9 0 13 4 10 10 -3 6 1 7 9 4
9 -3 16 -1 16 5 0 6 7 8 15 5 8 -4 15 -1 15 5 0 6 5 11 11 11 6 0 17 7 26 15
8 8 18 13 23 10 4 -3 13 2 20 10 7 8 19 15 26 15 8 0 14 4 14 8 0 4 16 14 35
21 19 7 35 17 35 22 0 6 4 8 9 4 5 -3 16 2 24 10 9 8 20 15 26 15 6 0 8 7 5
15 -4 8 -2 15 4 15 15 0 1 53 -19 71 -10 9 -16 19 -12 23 6 6 -11 9 -23 4 -3
-2 -12 8 -19 22 -8 14 -14 21 -15 17 0 -8 -16 4 -57 43 -14 14 -22 19 -19 13
4 -7 4 -13 1 -13 -10 0 -35 28 -35 39 0 6 -7 8 -15 5 -8 -4 -15 -1 -15 5 0 6
-7 11 -15 11 -8 0 -15 6 -15 14 0 9 -7 12 -22 9 -19 -4 -20 -3 -8 6 13 10 13
11 0 12 -8 1 -18 1 -22 0 -5 0 -8 6 -8 16 0 9 -3 13 -7 10 -3 -4 -15 0 -25 10
-10 9 -18 12 -18 8 0 -4 -8 1 -18 11 -28 30 -65 49 -70 35 -3 -8 -8 -7 -16 3
-10 14 -13 13 -31 -7z"/>
<path d="M8360 3069 c0 -5 5 -7 10 -4 6 3 10 8 10 11 0 2 -4 4 -10 4 -5 0 -10
-5 -10 -11z"/>
<path d="M9608 2858 c-26 -18 -45 -35 -42 -39 2 -4 -3 -9 -10 -12 -31 -12 -6
-60 69 -133 40 -40 77 -69 81 -66 4 4 4 1 0 -6 -4 -7 -1 -15 8 -18 9 -3 16
-14 16 -23 0 -14 2 -14 10 -1 6 10 10 11 10 3 0 -17 42 -59 55 -55 5 2 7 0 3
-4 -9 -8 29 -37 54 -41 9 -2 20 2 24 9 5 7 2 8 -7 3 -8 -5 -5 1 5 13 14 17 16
22 5 22 -11 0 -11 2 1 10 11 7 11 10 2 10 -7 0 -10 5 -7 10 3 6 2 10 -3 10 -8
0 -10 6 -14 50 -1 11 -6 20 -10 20 -4 0 -8 9 -8 19 0 11 -4 23 -10 26 -5 3
-10 19 -10 36 0 21 -5 29 -17 29 -15 0 -16 2 -3 10 10 6 11 10 3 10 -7 0 -12
6 -10 13 1 6 -3 11 -10 10 -8 -2 -10 4 -6 14 5 12 3 14 -7 8 -10 -6 -12 -4 -7
8 3 9 0 23 -8 31 -8 8 -15 17 -15 21 0 4 -6 13 -14 21 -24 23 -77 16 -128 -18z"/>
<path d="M7833 2810 c-18 -11 -33 -17 -33 -14 0 3 -7 -2 -16 -10 -8 -9 -22
-16 -30 -16 -8 0 -14 -4 -14 -10 0 -5 -7 -10 -15 -10 -8 0 -15 -5 -15 -11 0
-5 -4 -7 -10 -4 -5 3 -10 1 -10 -5 0 -6 -4 -8 -10 -5 -5 3 -10 1 -10 -4 0 -6
-6 -11 -13 -11 -7 0 -23 -9 -35 -20 -12 -11 -28 -20 -37 -20 -8 0 -15 -5 -15
-11 0 -5 -4 -7 -10 -4 -5 3 -10 1 -10 -5 0 -7 -7 -10 -15 -6 -8 3 -14 0 -12
-7 1 -7 -6 -11 -17 -9 -10 2 -15 -1 -12 -6 3 -5 -12 -18 -33 -28 -22 -10 -37
-23 -33 -28 3 -5 -3 -6 -14 -2 -10 4 -16 4 -12 1 3 -4 -3 -16 -14 -27 -11 -11
-17 -26 -14 -34 3 -8 -1 -14 -10 -14 -8 0 -12 -5 -9 -10 4 -6 10 -8 14 -5 5 2
6 -7 3 -21 -3 -17 3 -31 21 -48 14 -13 28 -21 31 -18 3 3 6 0 6 -6 0 -7 7 -12
16 -12 8 0 13 -4 10 -8 -2 -4 5 -9 17 -9 12 -1 23 -7 25 -13 2 -5 10 -10 17
-10 7 0 15 -5 17 -10 2 -6 13 -12 26 -13 12 0 25 -10 28 -20 5 -15 8 -16 22
-5 12 10 14 10 8 1 -6 -11 -1 -15 20 -12 3 0 14 -10 25 -22 10 -12 19 -19 19
-14 0 4 6 2 13 -4 8 -6 17 -8 20 -4 4 3 7 1 7 -5 0 -7 7 -12 15 -12 8 0 15 -5
15 -11 0 -5 5 -7 10 -4 6 3 13 -1 16 -9 3 -9 11 -13 16 -10 6 4 14 1 18 -7 10
-15 70 -20 70 -5 0 6 4 5 9 -2 6 -10 10 -10 21 2 7 9 16 13 21 10 5 -3 9 -1 9
5 0 5 9 12 19 16 12 4 18 12 14 21 -3 7 0 14 6 14 6 0 11 7 11 16 0 8 4 13 8
10 5 -3 9 1 9 9 0 8 -5 11 -11 8 -6 -4 -5 0 2 9 10 13 10 17 0 21 -10 4 -10 6
1 6 11 1 11 4 0 18 -8 9 -9 14 -3 10 6 -3 11 0 11 8 0 8 -4 12 -9 9 -12 -8
-10 10 4 24 7 7 8 12 2 12 -5 0 -10 9 -11 20 -1 11 1 19 5 16 4 -2 7 9 7 24 1
16 -2 27 -6 24 -9 -5 -6 17 4 34 5 7 3 12 -5 12 -10 0 -10 2 1 9 9 6 10 10 2
16 -9 5 -9 10 0 21 9 11 8 14 -2 14 -12 0 -12 2 -1 9 8 4 14 12 14 16 0 4 -6
12 -14 16 -11 7 -11 9 1 9 10 0 11 3 2 14 -9 11 -9 15 1 19 10 4 10 8 -2 16
-12 8 -12 11 -1 11 10 0 11 3 2 14 -9 11 -9 16 0 21 8 6 7 10 -2 16 -11 7 -11
9 -1 9 10 0 9 4 -2 16 -9 8 -14 20 -11 25 3 4 -6 11 -20 15 -14 3 -25 9 -25
13 0 10 -53 7 -70 -4 -9 -5 -11 -4 -6 3 10 16 6 15 -31 -8z"/>
<path d="M8133 2806 c-13 -12 -23 -27 -23 -34 0 -7 -6 -12 -12 -12 -9 0 -8 -4
2 -10 9 -6 11 -10 3 -10 -7 0 -10 -7 -6 -17 5 -12 3 -14 -8 -8 -10 7 -9 2 3
-17 16 -24 16 -28 2 -42 -14 -15 -11 -21 10 -17 5 1 5 -4 -1 -11 -13 -15 -11
-127 2 -147 5 -9 4 -12 -2 -8 -6 4 -10 -4 -10 -18 0 -14 4 -22 10 -18 6 4 7 1
1 -8 -13 -21 -14 -39 -1 -39 6 0 2 -7 -9 -16 -10 -8 -14 -13 -8 -10 7 3 14 -4
17 -15 4 -16 2 -19 -10 -15 -13 5 -14 4 -3 -9 7 -8 9 -15 5 -15 -4 0 -1 -8 6
-17 8 -9 9 -14 3 -10 -8 4 -11 -2 -10 -17 0 -13 4 -22 9 -19 4 2 7 -3 7 -12 0
-10 5 -13 12 -9 6 4 8 3 4 -4 -3 -6 -2 -13 4 -17 6 -4 8 -11 5 -16 -4 -5 3 -9
14 -9 10 0 21 -5 23 -12 5 -15 51 -18 60 -4 5 7 8 7 8 -3 0 -11 3 -11 17 0 14
12 16 12 9 -1 -4 -8 0 -6 9 5 9 11 18 19 20 18 13 -8 25 -2 19 9 -5 8 -2 9 9
5 10 -3 17 -2 17 4 0 6 5 7 10 4 6 -3 10 -1 10 5 0 7 6 10 14 7 8 -3 17 1 20
9 3 8 12 14 21 14 8 0 15 5 15 11 0 5 5 7 10 4 6 -3 10 -1 10 5 0 6 5 8 10 5
6 -3 10 -1 10 4 0 6 7 11 16 11 9 0 12 5 8 12 -4 6 -3 8 4 4 13 -8 75 28 65
38 -4 4 0 4 10 0 10 -4 19 0 23 9 3 9 14 14 25 12 10 -2 19 0 19 6 0 5 7 9 15
9 8 0 19 9 25 20 6 11 16 17 22 14 7 -4 8 -3 4 4 -4 7 -2 12 4 12 6 0 9 4 5 9
-3 5 0 13 6 17 8 4 7 9 -2 15 -10 6 -11 9 -2 9 7 0 12 11 11 24 -1 14 -6 22
-10 20 -7 -4 -10 5 -10 26 0 11 -44 45 -58 45 -8 0 -14 6 -12 13 1 6 -1 11 -5
10 -13 -4 -73 24 -73 33 0 5 -6 8 -12 7 -7 -2 -12 2 -11 7 1 6 -7 12 -18 12
-10 1 -26 9 -35 17 -14 15 -28 20 -46 17 -5 0 -8 6 -8 14 0 9 -10 15 -26 15
-14 0 -23 4 -19 10 3 6 -3 10 -15 10 -14 0 -19 4 -14 12 5 8 2 9 -9 5 -10 -3
-17 -2 -17 4 0 6 -4 8 -9 5 -5 -3 -12 1 -15 10 -3 8 -10 12 -16 9 -6 -3 -13 0
-16 8 -5 15 -9 16 -74 21 -36 3 -50 -1 -67 -18z"/>
<path d="M6672 2714 c-7 -8 -18 -11 -24 -8 -7 5 -9 1 -5 -9 4 -10 -1 -22 -11
-29 -13 -10 -17 -28 -17 -75 0 -33 -3 -59 -7 -56 -13 7 -9 -12 5 -26 7 -9 7
-11 1 -8 -7 4 -14 0 -18 -8 -3 -8 -1 -15 5 -15 6 0 7 -6 2 -12 -4 -7 -8 -31
-9 -53 -1 -22 -2 -48 -3 -58 -1 -11 -6 -15 -13 -11 -7 5 -8 3 -2 -7 12 -20 14
-38 3 -45 -5 -3 -5 -13 1 -24 7 -13 7 -21 0 -25 -6 -4 -8 -15 -5 -26 5 -15 2
-18 -12 -13 -17 5 -17 5 0 -6 18 -11 18 -13 0 -33 -18 -21 -18 -21 1 -7 18 14
19 13 13 -11 -9 -34 37 -86 59 -68 7 6 19 7 25 3 8 -4 9 -3 5 4 -4 7 -1 12 8
12 9 0 16 5 16 10 0 6 8 10 17 10 9 0 14 3 10 6 -8 9 14 30 41 38 12 4 22 14
22 21 0 9 6 12 17 8 11 -4 14 -3 9 5 -4 7 -3 12 2 12 5 0 22 11 37 24 16 14
32 23 37 20 4 -3 8 2 8 10 0 9 7 16 16 16 8 0 13 4 10 9 -3 5 7 14 23 21 16 6
32 18 35 26 3 8 13 14 21 14 9 0 14 4 11 9 -3 4 6 13 20 20 14 6 23 15 20 20
-3 5 1 12 9 15 16 6 19 76 3 76 -4 0 -8 7 -8 15 0 14 -12 19 -32 16 -5 0 -8 6
-8 15 0 8 -4 13 -8 10 -5 -3 -20 6 -35 20 -15 14 -27 20 -27 14 0 -7 -5 -6
-14 2 -8 7 -12 16 -9 21 2 4 1 7 -4 6 -18 -3 -34 1 -29 9 2 4 -4 8 -14 9 -10
1 -28 10 -39 20 -12 10 -25 18 -29 17 -4 -1 -13 6 -20 15 -11 13 -12 13 -7 1
4 -8 -2 -5 -13 7 -11 12 -22 19 -26 16 -3 -4 -6 0 -6 8 0 11 -2 11 -10 -1 -7
-11 -10 -11 -10 -2 0 7 -4 11 -9 8 -5 -4 -11 -2 -13 3 -1 5 -9 3 -16 -5z"/>
<path d="M9347 2695 c-7 -6 -19 -10 -27 -7 -8 3 -12 1 -8 -3 9 -9 -53 -45 -65
-38 -4 2 -6 -1 -5 -8 2 -7 -8 -16 -22 -20 -14 -4 -20 -8 -15 -8 6 -1 -7 -10
-28 -20 -20 -9 -34 -21 -30 -26 5 -4 0 -5 -9 -2 -12 4 -18 1 -18 -9 0 -8 -4
-13 -9 -9 -5 3 -16 -1 -24 -9 -8 -8 -17 -13 -20 -10 -3 3 -8 -4 -12 -15 -3
-12 -11 -19 -16 -16 -5 3 -6 -2 -2 -11 4 -11 3 -15 -5 -10 -7 4 -8 -2 -2 -23
4 -16 6 -32 2 -35 -3 -3 3 -6 13 -6 10 0 16 -3 12 -6 -6 -7 16 -34 28 -34 13
0 34 -28 27 -35 -4 -5 -1 -5 6 -1 7 4 15 1 18 -8 3 -9 10 -13 15 -10 5 3 9 0
9 -5 0 -6 7 -11 15 -11 8 0 15 -7 15 -16 0 -8 4 -13 9 -10 5 3 11 -1 15 -9 3
-8 11 -15 17 -15 6 0 20 -10 30 -22 11 -11 19 -18 19 -14 0 4 11 -5 24 -19 14
-15 28 -27 33 -28 4 -1 7 -6 5 -10 -1 -5 2 -6 8 -2 5 3 13 -1 16 -9 3 -9 10
-14 14 -11 4 3 10 -2 14 -10 3 -8 13 -15 21 -15 10 0 13 -5 9 -12 -4 -7 -3 -8
5 -4 6 4 18 2 26 -4 12 -10 15 -10 15 0 0 7 7 10 16 6 8 -3 13 -2 10 3 -3 4 4
18 15 29 11 12 15 22 8 22 -7 0 -8 5 -3 13 11 15 11 38 0 55 -4 7 -2 20 6 29
9 12 9 15 1 9 -8 -4 -13 -2 -13 8 0 8 -3 22 -7 32 -5 13 -3 15 8 9 11 -7 12
-6 3 6 -5 8 -10 23 -10 34 1 11 -3 23 -9 27 -6 5 -5 8 3 8 8 0 10 5 6 12 -12
19 -12 48 0 49 6 0 2 4 -9 9 -11 5 -15 9 -8 9 8 1 9 10 4 29 -4 15 -6 32 -4
39 2 6 -1 14 -6 18 -8 4 -8 12 -1 26 7 13 7 19 0 19 -5 0 -10 5 -10 11 0 5 5
7 11 3 8 -5 8 -1 0 14 -8 15 -8 22 2 25 7 3 4 6 -6 6 -10 1 -16 5 -12 10 3 5
-1 16 -9 24 -8 8 -13 17 -10 19 2 3 -16 5 -41 5 -26 0 -52 -5 -58 -12z"/>
<path d="M9518 2655 c-8 -19 -12 -32 -8 -30 4 3 11 -2 14 -11 4 -10 2 -13 -7
-8 -8 5 -7 2 2 -9 9 -12 10 -17 2 -17 -7 0 -9 -5 -4 -12 12 -21 12 -38 0 -38
-8 0 -7 -4 2 -9 8 -5 14 -27 15 -49 1 -23 5 -44 9 -48 4 -4 2 -13 -4 -21 -6
-7 -8 -13 -3 -13 5 0 9 -27 9 -60 0 -33 4 -60 8 -60 5 0 5 -5 1 -12 -10 -16
-11 -68 -1 -68 5 0 5 -4 2 -10 -3 -5 -1 -10 6 -10 8 0 8 -4 -1 -15 -9 -11 -9
-15 -1 -15 7 0 10 -4 7 -8 -3 -5 5 -17 16 -27 17 -14 25 -15 40 -6 10 6 22 10
26 7 9 -5 33 20 25 27 -3 4 6 9 20 13 15 3 29 13 32 22 9 28 53 54 72 44 14
-9 14 -10 -6 -17 -11 -3 -19 -11 -16 -16 4 -5 -1 -9 -10 -9 -9 0 -14 -4 -10
-9 3 -5 -4 -13 -16 -16 -11 -4 -18 -9 -15 -12 3 -3 -10 -19 -29 -36 -19 -17
-35 -37 -35 -44 0 -8 -4 -12 -9 -9 -5 3 -12 -1 -15 -10 -4 -10 -2 -13 7 -8 7
5 7 1 -2 -10 -20 -24 -16 -88 6 -104 10 -7 17 -15 16 -17 -7 -13 -1 -25 12
-25 8 0 15 -4 15 -9 0 -13 47 -60 54 -54 3 4 6 -1 6 -11 0 -9 5 -14 10 -11 6
3 10 0 10 -8 0 -8 10 -22 23 -30 12 -9 36 -27 52 -41 17 -14 35 -30 42 -35 7
-7 13 -5 17 4 3 8 13 15 21 15 9 0 14 4 11 9 -4 5 -2 11 4 13 5 1 11 14 14 28
2 14 5 25 6 25 7 0 6 36 -1 41 -5 3 -5 13 1 25 8 14 7 19 -2 19 -9 0 -9 3 2
10 8 5 11 10 7 10 -4 0 -3 9 3 19 7 15 6 23 -5 35 -8 8 -11 16 -6 18 5 2 10
21 11 43 3 59 1 67 -12 59 -7 -5 -8 -3 -2 7 12 20 16 51 5 45 -11 -7 -9 13 2
32 5 7 3 12 -3 12 -6 0 -8 5 -3 13 11 17 13 38 3 32 -5 -3 -9 3 -10 12 -1 40
-5 62 -9 58 -2 -3 -11 1 -19 7 -17 15 -55 22 -47 9 9 -16 -15 -24 -31 -10 -14
11 -14 14 3 28 10 9 25 25 33 35 13 18 13 19 0 11 -13 -8 -13 -7 -1 8 11 14
11 17 0 17 -11 0 -11 2 1 10 12 7 12 10 1 10 -8 0 -11 6 -7 17 4 10 4 14 0 11
-7 -7 -54 39 -54 53 0 5 -5 9 -11 9 -14 0 -39 26 -39 40 0 6 -4 9 -9 6 -5 -3
-11 1 -15 9 -3 8 -12 15 -21 15 -8 0 -15 7 -15 16 0 8 -4 12 -10 9 -5 -3 -10
0 -10 7 0 7 -14 22 -30 33 -16 11 -30 27 -30 35 0 13 -1 13 -10 0 -6 -10 -10
-11 -10 -2 0 18 -33 47 -56 49 -14 1 -25 -8 -36 -32z m319 -413 c0 -11 -10
-19 -24 -20 -27 -2 -30 13 -5 27 25 15 31 13 29 -7z"/>
<path d="M7055 2330 c3 -5 1 -10 -4 -10 -22 0 -26 -2 -34 -16 -5 -8 -12 -12
-18 -9 -5 4 -9 -2 -9 -11 0 -10 -3 -15 -6 -11 -9 9 -44 -25 -37 -36 4 -6 1 -7
-7 -2 -8 5 -18 1 -27 -10 -7 -11 -13 -16 -13 -12 0 9 -18 -5 -59 -44 -15 -14
-32 -24 -39 -21 -7 2 -12 -3 -12 -12 0 -9 -6 -16 -14 -16 -8 0 -17 -7 -20 -16
-3 -8 -10 -13 -14 -10 -5 3 -14 -4 -22 -14 -8 -10 -17 -17 -21 -14 -4 2 -10
-5 -14 -16 -4 -11 -10 -18 -15 -15 -11 7 -23 -69 -15 -96 8 -25 41 -60 49 -51
3 3 6 -2 6 -11 0 -11 5 -14 15 -10 9 3 15 2 13 -3 -2 -5 0 -10 5 -11 4 -2 18
-14 31 -28 13 -14 31 -25 40 -25 9 0 16 -7 16 -15 0 -8 9 -15 21 -15 11 0 17
-4 14 -10 -3 -5 0 -10 7 -10 7 0 19 -9 26 -20 7 -12 17 -18 21 -15 5 2 11 -2
15 -10 3 -8 12 -15 20 -15 7 0 17 -7 20 -16 3 -8 10 -12 16 -9 6 3 13 -1 16
-9 3 -9 10 -13 15 -10 5 3 9 -3 9 -13 0 -15 2 -16 10 -3 7 11 10 12 10 2 0 -9
7 -11 20 -7 11 4 20 2 20 -4 0 -21 18 -10 38 23 23 39 34 120 18 137 -8 9 -6
10 8 5 16 -6 17 -4 6 9 -10 12 -14 56 -14 153 -1 75 -5 143 -10 151 -6 9 -5
12 1 8 7 -5 11 6 11 28 0 19 -4 38 -9 41 -6 3 -5 11 2 20 6 8 9 23 6 35 -4 16
-2 19 11 14 14 -5 15 -4 5 6 -7 7 -13 19 -13 26 0 22 -37 56 -54 50 -9 -3 -18
-2 -21 3 -4 6 -11 10 -16 10 -6 0 -7 -4 -4 -10z"/>
<path d="M9010 2329 c0 -6 -4 -8 -10 -4 -12 7 -50 -30 -56 -56 -2 -10 -6 -28
-8 -39 -3 -11 -1 -18 3 -16 4 3 7 -46 7 -109 -1 -63 1 -115 4 -115 3 0 4 -63
4 -140 -1 -77 2 -143 7 -146 5 -3 9 -15 9 -26 0 -12 3 -19 6 -15 7 7 34 -15
29 -23 -2 -3 8 -7 21 -8 14 -1 23 2 20 7 -3 4 6 7 19 6 16 -2 26 3 30 15 3 10
21 25 40 35 19 9 35 20 35 26 0 6 5 7 10 4 6 -3 10 -1 10 6 0 7 3 10 6 6 4 -3
15 4 25 16 10 12 18 18 19 14 0 -4 11 4 25 19 14 15 25 23 25 19 0 -5 7 0 15
11 8 10 15 15 15 9 0 -5 7 1 16 13 8 12 20 20 25 17 5 -4 9 1 9 10 0 11 5 15
16 11 9 -3 12 -2 9 5 -4 6 3 13 15 16 16 4 18 8 8 14 -10 7 -9 9 4 9 12 0 15
5 11 17 -4 9 -2 14 3 10 5 -3 10 3 10 14 0 10 -4 19 -8 19 -4 0 -5 7 -2 15 4
8 1 15 -5 15 -6 0 -10 3 -10 8 3 20 -2 32 -16 32 -8 0 -15 7 -15 15 0 9 -6 12
-17 8 -10 -4 -14 -2 -10 4 3 5 -12 20 -33 34 -22 13 -40 30 -40 36 0 7 -3 12
-7 11 -13 -3 -73 38 -66 45 3 4 -1 7 -9 7 -8 0 -27 11 -42 25 -15 14 -34 25
-42 25 -7 0 -14 7 -14 16 0 8 -4 13 -8 10 -5 -3 -14 3 -22 14 -7 10 -19 16
-27 13 -7 -3 -13 -1 -13 5 0 5 -7 12 -15 16 -8 3 -15 1 -15 -5z"/>
<path d="M7284 2318 c-4 -5 -12 -7 -20 -4 -8 3 -13 2 -13 -2 3 -17 -2 -30 -21
-50 -12 -12 -16 -22 -9 -22 8 0 8 -4 -1 -15 -10 -12 -10 -15 1 -15 8 0 5 -6
-7 -15 -14 -12 -15 -14 -2 -9 13 4 15 1 11 -15 -3 -11 -10 -18 -16 -14 -6 4
-7 1 -2 -7 5 -8 7 -36 6 -64 -7 -119 -5 -176 4 -176 6 0 3 -5 -5 -10 -13 -9
-13 -10 0 -10 13 0 13 -1 0 -10 -11 -7 -11 -10 -2 -10 10 0 10 -5 2 -20 -8
-14 -8 -20 0 -20 6 0 8 -5 5 -10 -4 -6 -1 -18 7 -27 9 -12 9 -15 1 -9 -9 5
-13 0 -13 -13 0 -12 5 -21 11 -21 8 0 7 -5 -2 -16 -10 -13 -10 -17 2 -25 8 -5
10 -9 5 -9 -5 0 -1 -10 10 -22 12 -14 14 -19 4 -13 -8 4 -5 -2 8 -14 12 -12
27 -19 32 -16 6 3 10 -2 11 -12 0 -11 3 -13 6 -5 4 9 8 10 18 2 9 -7 15 -8 19
-1 4 6 13 8 22 4 9 -3 14 0 12 8 -2 9 5 14 19 13 13 -1 20 2 18 7 -5 8 34 25
48 21 5 -1 6 2 3 7 -5 7 20 19 41 19 3 0 10 7 15 16 5 9 13 14 19 11 5 -4 9
-1 9 5 0 7 7 10 15 6 9 -3 15 0 15 10 0 11 6 14 16 10 10 -4 13 -2 8 6 -5 8
-2 9 9 5 16 -6 22 3 18 26 -1 4 8 3 20 -4 15 -8 19 -8 15 0 -4 6 -2 11 4 11 6
0 8 5 4 12 -4 6 -3 8 4 4 6 -3 13 -2 17 4 4 6 10 8 15 5 4 -3 11 2 14 11 3 8
10 13 15 10 5 -3 11 1 15 9 3 8 10 15 16 15 17 0 47 35 42 50 -3 8 0 10 8 5
10 -6 12 -4 7 7 -3 9 0 21 6 27 8 8 8 11 -1 11 -7 0 -10 12 -7 30 3 23 0 30
-13 30 -14 0 -14 2 -3 9 11 7 9 10 -8 16 -11 3 -21 13 -21 21 0 8 -4 12 -10 9
-5 -3 -10 -1 -10 5 0 6 -4 8 -10 5 -5 -3 -10 -1 -10 4 0 6 -7 11 -15 11 -7 0
-19 8 -24 18 -6 9 -11 13 -11 7 0 -5 -4 -4 -9 3 -4 7 -17 14 -29 15 -11 0 -18
5 -16 9 3 4 0 8 -5 8 -19 0 -25 4 -50 30 -13 14 -17 16 -10 5 10 -14 4 -12
-19 8 -19 15 -38 25 -43 21 -5 -3 -9 2 -9 11 0 10 -5 13 -12 9 -6 -4 -17 1
-25 11 -7 11 -13 15 -13 10 0 -4 -9 0 -20 10 -11 10 -20 15 -20 11 0 -4 -13 2
-30 14 -21 15 -30 17 -30 8 0 -9 -3 -9 -8 -2 -8 13 -41 14 -48 2z"/>
<path d="M8735 2321 c-3 -6 -10 -9 -15 -6 -4 3 -11 -2 -14 -11 -3 -8 -10 -12
-16 -9 -6 3 -13 -1 -16 -10 -4 -9 -13 -14 -20 -11 -8 3 -14 1 -14 -4 0 -5 -11
-12 -25 -16 -14 -3 -25 -10 -25 -14 0 -4 -13 -13 -30 -20 -16 -7 -30 -16 -30
-21 0 -5 -7 -5 -17 -2 -10 4 -14 2 -10 -4 8 -12 -20 -26 -34 -18 -5 4 -6 -2
-2 -11 4 -11 3 -15 -4 -11 -6 4 -19 0 -27 -9 -9 -8 -16 -12 -16 -8 0 4 -7 -1
-16 -12 -8 -10 -13 -12 -9 -4 4 8 -5 3 -18 -12 -14 -15 -28 -24 -31 -21 -8 9
-37 -18 -30 -28 3 -5 0 -8 -8 -7 -8 2 -12 -4 -10 -16 2 -12 -1 -16 -9 -10 -9
5 -10 2 -6 -9 3 -9 1 -19 -5 -23 -7 -4 -6 -9 3 -15 8 -5 9 -9 3 -9 -6 0 -11
-7 -11 -15 0 -8 4 -15 9 -15 4 0 8 -7 8 -15 0 -8 5 -15 11 -15 5 0 8 -4 5 -9
-3 -5 6 -16 19 -25 14 -9 23 -21 20 -26 -3 -4 5 -6 17 -2 14 3 19 1 14 -6 -4
-6 3 -12 16 -14 14 -2 22 -9 20 -18 -2 -8 0 -12 3 -8 4 4 17 2 29 -4 11 -7 24
-11 29 -10 4 1 7 -2 7 -8 0 -5 7 -10 15 -10 8 0 15 -4 15 -10 0 -5 9 -10 21
-10 11 0 17 -4 14 -10 -3 -6 4 -10 17 -10 13 0 30 -9 38 -20 8 -11 20 -20 28
-20 7 0 20 -7 29 -15 8 -8 19 -13 24 -10 5 4 9 1 9 -4 0 -6 9 -11 19 -11 11 0
27 -10 35 -22 9 -12 16 -18 16 -12 0 6 13 11 29 11 29 0 66 26 66 47 1 6 6 10
13 9 6 -2 9 4 6 12 -4 9 0 23 7 32 12 14 12 16 -2 11 -13 -5 -16 -2 -11 15 3
12 10 25 16 29 7 5 7 8 1 8 -6 0 -11 9 -12 20 -1 11 2 18 7 15 10 -6 8 14 -3
32 -4 6 -1 14 5 16 10 4 9 8 -2 16 -8 6 -10 11 -4 11 7 0 15 7 18 16 3 8 2 13
-2 10 -5 -3 -8 21 -7 52 2 31 -2 63 -9 71 -8 11 -8 13 1 8 8 -5 11 0 10 13 -1
11 -6 20 -12 20 -5 0 -3 5 5 10 12 8 12 10 1 10 -11 0 -11 3 0 17 10 11 10 14
2 9 -16 -9 -16 -1 -2 26 8 15 8 19 0 14 -6 -4 -11 0 -11 8 0 9 6 16 13 16 9 0
9 2 0 8 -7 5 -14 20 -15 35 -1 15 -6 27 -10 27 -4 0 -8 6 -8 14 0 20 -60 49
-75 36 -7 -6 -15 -6 -22 1 -8 8 -13 8 -18 0z"/>
<path d="M6315 2200 c10 -11 20 -20 23 -20 3 0 -3 9 -13 20 -10 11 -20 20 -23
20 -3 0 3 -9 13 -20z"/>
<path d="M6609 1849 c-10 -10 -19 -24 -19 -30 0 -5 -4 -8 -9 -5 -4 3 -7 -6 -5
-19 1 -14 -2 -28 -7 -31 -6 -3 -6 -11 -1 -17 4 -7 8 -21 7 -32 0 -11 3 -28 7
-37 5 -10 4 -20 -2 -23 -8 -5 -7 -11 1 -21 6 -7 9 -21 5 -29 -3 -8 -1 -15 4
-15 6 0 10 -5 10 -11 0 -5 -5 -7 -12 -3 -6 4 -8 3 -4 -4 3 -5 3 -12 -1 -15 -5
-2 -3 -2 4 -1 8 2 11 -9 9 -31 -1 -19 2 -35 7 -35 5 0 4 -7 -3 -15 -8 -10 -9
-15 -2 -15 6 0 9 -7 6 -15 -3 -8 -2 -20 2 -27 12 -18 11 -58 -1 -58 -5 0 -4
-4 4 -9 9 -6 11 -18 7 -35 -4 -16 -2 -26 4 -26 6 0 8 -5 5 -10 -3 -6 1 -13 9
-16 9 -3 16 -12 16 -20 0 -8 5 -14 11 -14 5 0 7 6 3 13 -6 9 -4 9 7 0 17 -17
49 -17 49 0 0 9 3 8 9 -2 6 -9 11 -10 15 -2 4 6 4 11 -1 11 -4 0 5 7 21 15 15
8 33 12 39 8 5 -3 7 -1 3 5 -3 6 3 13 14 17 12 4 17 11 13 18 -5 9 -3 9 8 1
10 -8 18 -6 31 7 9 9 14 20 11 22 -3 3 3 4 12 3 10 -1 29 8 43 21 14 13 31 22
39 19 7 -3 15 0 19 6 5 7 2 8 -6 3 -9 -6 -11 -4 -6 4 5 7 14 10 22 7 12 -5 18
5 15 26 0 4 7 4 16 1 12 -5 15 -2 10 10 -4 10 -2 16 5 14 18 -3 18 71 1 89 -8
8 -19 14 -24 14 -6 0 -7 5 -4 10 3 6 1 10 -4 10 -21 0 -26 3 -39 21 -7 11 -20
19 -29 19 -9 0 -13 3 -10 7 11 10 -13 33 -34 33 -11 0 -19 7 -19 16 0 8 -4 12
-10 9 -5 -3 -10 -1 -10 5 0 6 -13 16 -30 21 -16 6 -29 14 -29 17 3 18 -2 35
-7 29 -10 -10 -65 33 -58 45 5 7 2 8 -5 3 -7 -4 -20 1 -31 11 -56 56 -73 61
-101 33z"/>
<path d="M9440 1848 c0 -5 -4 -6 -10 -3 -5 3 -10 1 -10 -4 0 -6 -6 -11 -13
-11 -6 0 -25 -14 -40 -30 -16 -17 -33 -28 -38 -24 -5 3 -9 0 -9 -6 0 -6 -5 -8
-12 -4 -6 4 -8 3 -4 -4 7 -12 -33 -44 -46 -36 -4 3 -5 -3 -1 -13 3 -10 3 -15
-2 -11 -4 4 -27 -8 -50 -27 -23 -19 -46 -31 -50 -27 -5 4 -6 3 -3 -3 3 -5 0
-16 -8 -23 -8 -7 -14 -9 -14 -5 0 4 -7 -1 -16 -12 -8 -11 -20 -20 -27 -20 -7
-1 -11 -6 -9 -13 1 -7 -2 -12 -6 -12 -5 0 -17 -7 -28 -16 -10 -8 -13 -12 -5
-9 9 5 8 0 -4 -18 -10 -16 -12 -27 -6 -31 6 -4 7 -14 4 -24 -3 -9 -3 -14 2
-10 4 4 18 -6 32 -23 14 -16 31 -29 39 -29 9 0 12 -4 9 -10 -3 -5 0 -7 8 -4 8
3 18 0 22 -5 3 -6 12 -8 18 -4 7 4 5 -2 -3 -12 -8 -10 -10 -16 -3 -12 15 9 45
-2 37 -15 -3 -5 0 -9 7 -7 28 3 40 -1 33 -13 -4 -6 -3 -8 4 -4 6 3 18 -1 26
-10 9 -8 16 -12 16 -8 0 4 7 -1 16 -12 8 -10 12 -12 8 -4 -7 13 -5 13 9 1 9
-7 14 -18 10 -24 -3 -6 -1 -7 5 -3 7 4 26 -1 42 -11 27 -16 32 -16 40 -3 9 13
10 13 10 0 1 -12 3 -11 11 3 6 9 14 15 19 12 12 -8 24 40 14 56 -4 7 -3 9 4 5
6 -3 13 -2 17 4 3 5 1 10 -6 10 -8 0 -8 4 1 15 9 11 9 15 1 15 -7 0 -9 5 -4
13 4 6 8 22 9 35 0 12 4 25 7 28 3 3 2 17 -4 31 -6 16 -5 22 1 18 6 -4 8 6 6
24 -2 17 -1 33 2 36 3 3 6 27 7 53 0 26 7 58 15 72 11 22 11 23 -1 13 -12 -10
-15 -8 -15 7 0 10 5 16 10 13 5 -4 7 3 4 15 -4 12 -1 22 4 22 6 0 5 6 -2 15
-7 8 -8 15 -3 15 5 0 10 7 10 15 0 8 -4 15 -9 15 -5 0 -6 5 -3 10 3 6 -1 13
-9 16 -9 3 -13 10 -10 15 3 5 2 9 -3 10 -4 0 -18 2 -30 3 -13 2 -23 -1 -23 -6z"/>
<path d="M9631 1852 c-1 -7 -6 -10 -11 -7 -16 10 -50 -5 -50 -21 0 -8 -4 -14
-10 -14 -5 0 -10 -7 -10 -15 0 -8 6 -15 13 -15 9 0 8 -3 -2 -9 -7 -5 -10 -14
-7 -20 4 -6 1 -11 -6 -11 -9 0 -9 -3 2 -10 8 -5 11 -10 5 -10 -6 0 -10 -30
-10 -70 0 -40 -4 -70 -10 -70 -5 0 -4 -4 3 -9 11 -6 10 -10 -4 -15 -13 -5 -14
-10 -6 -18 8 -8 8 -17 1 -31 -8 -14 -8 -17 0 -13 14 9 3 -53 -13 -73 -8 -11
-8 -13 0 -8 12 7 14 -69 2 -88 -3 -6 5 -24 18 -40 13 -17 24 -24 24 -17 0 7 4
11 9 7 6 -3 25 9 43 27 18 18 36 32 41 30 4 -1 7 3 7 9 0 6 7 17 15 25 8 9 15
13 15 9 0 -3 11 5 24 17 13 13 21 28 18 33 -3 6 2 4 11 -4 15 -12 17 -12 11 3
-4 11 -2 16 7 14 8 -2 13 3 11 10 -1 8 7 16 18 19 11 3 18 8 16 12 -2 3 11 17
30 31 18 14 32 31 29 38 -2 6 0 12 6 12 6 0 7 5 4 10 -3 6 -2 10 4 10 6 0 7 7
4 17 -5 12 -3 14 8 9 8 -4 6 -1 -3 7 -10 8 -18 19 -18 26 0 6 -5 11 -11 11 -5
0 -7 5 -3 12 5 8 2 9 -9 5 -10 -3 -17 -2 -17 4 0 15 -26 39 -34 32 -3 -4 -6 1
-6 10 0 10 -4 17 -8 17 -4 0 -32 22 -62 50 -29 27 -57 47 -61 44 -5 -3 -6 3
-2 12 4 11 3 15 -4 11 -6 -4 -14 -1 -16 5 -4 10 -6 10 -6 0z"/>
<path d="M7841 1794 c-1 -6 -13 -10 -27 -8 -18 2 -24 -2 -20 -11 3 -9 -3 -12
-20 -10 -13 1 -27 -2 -31 -8 -4 -6 -1 -7 8 -3 8 4 5 1 -5 -8 -10 -8 -23 -13
-27 -10 -5 3 -9 0 -9 -5 0 -6 -7 -11 -16 -11 -8 0 -13 -4 -9 -9 3 -6 -4 -8
-15 -6 -11 2 -18 0 -15 -6 6 -8 -8 -13 -27 -10 -5 0 -8 -6 -8 -15 0 -11 -6
-15 -20 -11 -11 3 -18 1 -14 -4 3 -5 -2 -9 -10 -9 -9 0 -16 -5 -16 -12 0 -6
-3 -8 -6 -5 -11 11 -45 -13 -37 -26 4 -7 -2 -5 -12 3 -10 8 -16 10 -12 4 4 -7
0 -15 -9 -18 -10 -4 -13 -2 -9 7 4 6 -2 1 -13 -13 -12 -14 -24 -21 -28 -17 -9
8 -40 -34 -36 -48 2 -5 1 -7 -3 -3 -10 10 -33 -15 -28 -29 3 -7 0 -13 -7 -13
-6 0 -8 -5 -5 -10 4 -6 10 -8 15 -5 4 3 6 -3 3 -13 -2 -11 2 -26 11 -34 8 -9
13 -18 10 -21 -3 -3 9 -11 25 -18 17 -8 31 -17 31 -21 0 -5 6 -8 14 -8 8 0 16
-5 18 -10 2 -6 13 -12 26 -13 12 0 22 -7 22 -15 0 -7 5 -10 10 -7 6 3 10 1 10
-4 0 -6 7 -11 15 -11 9 0 18 -6 21 -14 3 -8 14 -13 25 -11 11 2 17 0 14 -6 -4
-5 1 -9 9 -9 9 0 16 -4 16 -8 0 -4 14 -16 31 -26 19 -11 29 -14 24 -6 -5 8 3
5 17 -6 14 -10 24 -22 21 -26 -2 -4 2 -5 10 -3 7 3 24 -3 37 -15 21 -19 34
-24 44 -17 2 1 13 -6 24 -16 14 -13 22 -15 27 -7 6 9 10 9 16 -1 6 -10 9 -11
9 -1 0 7 13 12 31 12 16 0 28 4 25 9 -3 5 1 11 9 15 8 3 15 12 15 20 0 8 6 16
13 19 9 3 9 9 -1 27 -8 12 -9 19 -3 15 6 -3 11 -2 11 4 0 5 -5 13 -10 16 -8 5
-7 11 1 21 9 11 8 14 -2 14 -11 0 -11 2 1 10 13 9 13 10 0 10 -12 0 -12 2 -1
9 9 6 10 11 2 15 -8 5 -8 13 -1 27 8 14 7 19 -2 19 -8 0 -9 3 -3 8 15 11 17
32 3 32 -9 0 -8 4 2 10 12 8 13 11 1 19 -11 7 -11 9 0 14 12 5 12 6 0 6 -11 1
-11 4 -1 16 10 12 10 15 -1 15 -11 0 -11 2 1 10 13 9 13 10 0 10 -13 0 -13 1
0 10 13 9 13 10 0 10 -13 0 -13 1 0 10 12 8 12 10 1 10 -11 0 -11 3 -1 15 10
12 10 15 -1 15 -9 0 -10 3 -4 8 12 8 13 41 2 59 -4 6 -1 14 5 16 10 4 10 6 1
6 -7 1 -13 9 -13 19 0 20 -42 72 -58 72 -6 0 -14 5 -18 12 -5 7 -3 8 6 3 9 -5
11 -4 6 4 -6 9 -11 9 -22 0 -11 -9 -14 -8 -14 2 0 11 -2 11 -10 -1 -9 -13 -10
-13 -10 0 0 12 -2 13 -9 1 -7 -11 -9 -11 -14 0 -3 8 -6 9 -6 3z"/>
<path d="M8200 1793 c0 -6 -9 -10 -20 -8 -11 2 -23 -1 -26 -7 -5 -7 -2 -8 6
-3 9 5 11 4 6 -3 -4 -7 -14 -12 -22 -12 -8 0 -12 -4 -9 -10 3 -5 -1 -10 -9
-10 -9 0 -16 -8 -16 -19 0 -11 -4 -23 -10 -26 -5 -3 -10 -11 -10 -16 0 -6 5
-7 12 -3 7 5 8 3 3 -6 -5 -7 -9 -34 -11 -59 -2 -30 1 -40 7 -30 5 8 9 9 9 3 0
-6 -3 -14 -7 -18 -9 -8 -13 -87 -4 -82 3 2 6 -6 6 -19 0 -19 -3 -21 -14 -12
-12 10 -12 9 -3 -10 15 -28 15 -36 0 -27 -7 5 -8 3 -3 -7 5 -7 8 -28 7 -47 -2
-25 1 -32 10 -26 10 5 11 4 1 -7 -7 -7 -13 -22 -13 -34 0 -12 6 -27 13 -34 10
-11 10 -13 0 -7 -9 5 -13 -1 -13 -19 0 -16 4 -24 11 -19 8 4 8 0 0 -15 -9 -16
-9 -21 0 -21 6 0 8 -7 5 -16 -3 -8 -2 -12 4 -9 6 3 13 -1 16 -9 3 -9 14 -16
23 -16 10 0 21 -3 25 -7 10 -10 46 -11 46 -1 0 4 9 8 21 8 11 0 18 4 14 9 -3
6 3 8 14 6 11 -2 22 3 25 11 3 9 10 12 16 9 5 -3 10 -1 10 4 0 6 6 10 13 9 6
-2 11 2 10 9 -2 8 4 10 14 6 11 -4 14 -3 9 5 -5 8 -2 10 8 6 9 -3 16 -1 16 6
0 6 5 8 10 5 6 -3 10 -1 10 4 0 6 9 11 21 11 14 0 19 5 16 14 -4 10 0 13 14
11 11 -2 22 2 26 10 3 8 9 12 14 9 5 -3 9 0 9 6 0 6 5 8 10 5 6 -3 10 -1 10 5
0 7 7 9 17 6 10 -4 14 -4 11 0 -10 9 20 36 32 29 5 -3 10 -1 10 5 0 7 7 10 14
7 11 -4 13 -1 9 10 -4 11 -3 14 5 9 7 -4 15 -1 18 8 3 8 14 13 25 11 11 -2 17
0 14 6 -4 5 1 12 9 15 9 3 14 10 11 14 -3 4 2 10 10 14 18 7 17 75 -2 94 -7 8
-10 18 -7 24 4 6 2 8 -3 5 -6 -4 -13 0 -17 8 -3 8 -13 15 -21 15 -9 0 -13 4
-10 10 3 6 -1 7 -9 4 -9 -3 -16 -1 -16 6 0 6 -4 8 -10 5 -5 -3 -10 -1 -10 4 0
6 -9 11 -21 11 -12 0 -18 4 -13 11 4 7 1 10 -7 7 -8 -3 -22 4 -31 15 -10 11
-18 15 -18 8 0 -9 -4 -9 -15 1 -34 31 -43 36 -49 31 -3 -4 -6 -1 -6 6 0 7 -6
11 -14 8 -8 -3 -17 1 -20 9 -3 8 -12 14 -20 14 -7 0 -16 6 -19 13 -2 7 -17 13
-31 15 -15 1 -34 9 -42 17 -9 8 -20 15 -25 15 -17 0 -24 2 -41 11 -13 7 -18 6
-18 -3 0 -9 -3 -9 -10 2 -6 9 -10 10 -10 3z"/>
<path d="M9834 1472 c-16 -8 -56 -42 -89 -76 -32 -34 -63 -60 -68 -58 -5 1 -6
-2 -2 -8 3 -5 1 -10 -4 -10 -6 0 -11 -8 -11 -17 0 -15 -2 -16 -10 -3 -6 10
-10 11 -10 3 0 -15 -36 -53 -50 -53 -5 0 -9 -6 -7 -12 1 -7 -4 -12 -10 -11 -7
2 -12 0 -11 -5 0 -4 -1 -14 -5 -22 -13 -36 -12 -45 10 -66 12 -11 20 -24 16
-27 -6 -7 46 -32 60 -29 4 1 7 -3 7 -9 0 -5 5 -7 10 -4 6 3 10 1 10 -4 0 -6
11 -11 25 -11 14 0 25 5 25 10 0 6 6 10 14 10 12 0 21 17 24 44 0 5 6 12 14
17 13 8 14 12 17 45 0 8 6 12 11 9 6 -3 10 3 10 14 0 11 5 23 10 26 6 3 10 15
10 26 0 10 6 19 13 19 8 0 7 4 -3 10 -11 7 -11 10 -2 10 7 0 10 5 7 10 -3 6
-2 10 4 10 5 0 8 9 6 20 -2 11 0 18 6 15 5 -4 9 5 9 19 0 14 5 26 10 26 15 0
12 69 -3 85 -11 10 -18 10 -43 -3z"/>
<path d="M7100 1380 c-8 -5 -18 -6 -22 -4 -4 3 -8 0 -8 -7 0 -7 -3 -9 -6 -6
-4 4 -20 -3 -37 -15 -19 -13 -28 -16 -23 -7 4 7 -2 3 -14 -11 -12 -14 -18 -18
-14 -11 4 9 -6 5 -24 -8 -18 -12 -32 -19 -32 -15 0 4 -7 -1 -16 -12 -8 -10
-12 -12 -8 -4 4 8 -4 5 -18 -8 -13 -12 -28 -19 -31 -15 -4 3 -7 1 -7 -6 0 -7
-5 -9 -10 -6 -6 3 -13 0 -16 -9 -3 -8 -14 -13 -25 -11 -11 2 -17 0 -15 -4 3
-4 -6 -13 -20 -20 -17 -7 -24 -17 -20 -27 3 -8 2 -13 -3 -10 -5 3 -11 -1 -15
-9 -3 -8 0 -15 6 -15 7 0 6 -5 -2 -15 -10 -12 -10 -15 4 -15 9 0 15 -3 15 -7
-3 -19 2 -33 12 -33 5 0 24 -13 42 -30 18 -16 37 -30 44 -30 6 0 13 -3 15 -7
5 -12 66 -53 78 -53 5 0 10 -4 10 -10 0 -13 56 -41 66 -32 5 4 6 3 2 -2 -4 -4
-2 -14 5 -21 13 -13 58 -39 68 -40 4 0 21 -12 40 -27 33 -28 39 -30 92 -32 23
-1 29 4 36 29 5 19 4 33 -3 37 -7 5 -7 8 2 8 9 0 10 5 4 18 -5 9 -8 25 -7 35
2 9 -2 17 -8 17 -7 0 -5 5 3 10 8 5 10 10 4 10 -6 0 -11 10 -10 23 1 12 -3 25
-9 29 -6 5 -5 8 3 8 8 0 10 5 5 13 -4 6 -8 23 -8 37 -1 14 -5 41 -10 60 -5 19
-8 43 -6 53 1 9 -4 17 -11 17 -10 0 -9 3 2 10 12 7 11 12 -5 31 -19 21 -19 22
-1 15 15 -5 17 -4 7 7 -6 8 -12 26 -13 41 -1 14 -6 26 -10 26 -4 0 -7 6 -5 13
1 6 -4 11 -11 9 -8 -1 -11 2 -8 7 9 14 -38 41 -54 31z"/>
<path d="M8995 1380 c-3 -6 -11 -8 -16 -5 -5 4 -9 1 -9 -5 0 -6 -4 -9 -9 -6
-11 7 -33 -18 -24 -27 3 -4 0 -7 -8 -7 -9 0 -16 -12 -17 -31 -1 -18 -6 -37 -9
-43 -13 -19 -12 -40 0 -55 9 -12 9 -13 0 -7 -10 5 -13 -4 -14 -36 -1 -24 -1
-46 0 -50 0 -5 -3 -8 -7 -8 -4 0 -8 -9 -9 -20 -1 -13 2 -18 10 -13 7 4 7 1 -1
-10 -8 -9 -11 -21 -8 -26 4 -5 2 -12 -3 -15 -5 -3 -7 -19 -6 -36 1 -16 -1 -30
-6 -30 -5 0 -9 -12 -9 -27 0 -16 0 -39 -1 -53 -3 -44 1 -56 19 -78 14 -15 22
-18 36 -10 9 5 20 7 23 4 3 -3 13 3 23 14 9 10 22 20 30 22 8 2 25 14 38 28
13 14 21 18 17 10 -4 -8 1 -6 10 5 9 11 20 20 26 20 5 0 14 7 19 15 5 8 10 11
10 7 0 -5 6 -2 14 5 24 23 69 53 71 48 1 -3 13 8 28 23 14 16 31 26 36 22 6
-3 11 0 11 8 0 8 11 18 25 21 14 4 23 11 20 16 -3 6 3 10 15 10 12 0 18 5 15
10 -3 6 2 10 11 10 10 0 14 3 11 6 -3 4 0 16 8 28 8 11 15 25 15 31 0 15 -45
65 -59 65 -6 0 -11 6 -11 13 0 8 -4 7 -10 -3 -8 -12 -10 -10 -10 9 0 18 -3 21
-13 12 -10 -8 -19 -6 -35 9 -12 11 -26 20 -32 20 -5 0 -10 5 -10 10 0 6 -7 10
-15 10 -9 0 -27 7 -40 16 -13 9 -29 13 -35 9 -6 -4 -9 -1 -8 6 2 7 -4 14 -12
14 -8 1 -14 7 -12 15 3 11 0 11 -12 0 -12 -9 -16 -10 -16 0 0 7 -7 10 -16 6
-8 -3 -13 -2 -10 3 3 5 -1 14 -8 20 -10 8 -16 9 -21 1z m-80 -139 c3 -5 2 -12
-3 -15 -5 -3 -9 1 -9 9 0 17 3 19 12 6z"/>
<path d="M8751 1341 c-8 -11 -9 -11 -4 -1 6 12 4 13 -9 3 -8 -7 -18 -10 -21
-6 -4 3 -7 2 -7 -4 0 -6 -12 -18 -26 -28 -18 -11 -24 -13 -19 -4 4 8 -2 4 -14
-8 -20 -21 -34 -27 -54 -24 -5 1 -6 -3 -3 -8 3 -5 -5 -12 -19 -15 -14 -4 -25
-11 -25 -17 0 -8 -5 -7 -15 1 -13 11 -14 10 -9 -4 4 -12 0 -16 -15 -16 -12 0
-21 -5 -21 -11 0 -6 -7 -9 -15 -5 -8 3 -14 0 -12 -7 1 -7 -8 -11 -21 -11 -18
1 -20 -1 -10 -13 6 -8 7 -13 2 -12 -21 4 -45 -2 -40 -9 2 -4 -5 -9 -17 -9 -12
-1 -27 -9 -33 -17 -6 -9 -14 -13 -17 -9 -4 3 -7 1 -7 -6 0 -7 -4 -9 -10 -6 -5
3 -10 -2 -10 -12 0 -15 -2 -16 -10 -3 -5 8 -10 10 -10 4 0 -5 -10 -15 -22 -20
-13 -6 -16 -9 -8 -7 10 2 9 -1 -4 -12 -10 -8 -24 -11 -30 -8 -6 4 -5 -1 3 -10
9 -11 10 -17 2 -17 -6 0 -11 -9 -11 -20 0 -11 5 -20 10 -20 6 0 10 -7 10 -16
0 -8 5 -12 10 -9 6 3 10 0 10 -8 0 -9 9 -14 23 -13 14 1 21 -4 19 -13 -2 -8 3
-11 13 -8 8 4 15 2 15 -3 0 -5 6 -7 14 -4 7 3 16 -2 20 -12 5 -13 9 -14 22 -3
12 10 15 10 12 -2 -2 -8 3 -13 10 -11 7 1 23 -3 35 -10 12 -7 25 -11 30 -10 4
1 7 -5 7 -14 0 -8 5 -12 10 -9 14 9 52 -4 45 -16 -3 -5 1 -6 10 -2 10 3 21 0
26 -8 7 -12 9 -12 9 0 0 11 4 10 13 -4 8 -10 19 -15 25 -11 7 4 12 3 12 -3 0
-5 10 -11 23 -13 13 -2 21 -10 19 -18 -2 -11 1 -10 12 3 12 16 14 16 20 2 5
-15 9 -14 35 4 15 11 31 18 35 14 3 -3 6 4 6 16 0 12 6 24 14 27 8 3 12 13 9
24 -3 10 1 28 7 40 7 12 8 20 3 17 -5 -4 -10 0 -10 8 0 8 4 12 8 9 8 -5 10 6
9 68 0 20 4 39 10 43 5 3 10 12 10 18 0 7 -4 6 -10 -3 -6 -9 -10 -10 -10 -3 0
6 4 14 8 17 5 3 9 26 11 53 1 26 8 51 14 55 9 6 9 8 0 8 -7 0 -13 5 -13 11 0
5 4 8 8 5 5 -3 9 1 9 9 0 8 -4 15 -9 15 -5 0 -6 5 -3 10 4 6 11 8 16 4 13 -7
7 19 -6 28 -6 5 -6 8 1 8 7 0 9 11 6 25 -2 14 -8 25 -13 25 -5 0 -9 6 -9 14 0
13 -23 26 -56 32 -6 1 -16 -6 -23 -15z"/>
<path d="M7278 1336 c-10 -7 -15 -16 -11 -19 3 -4 1 -7 -5 -7 -7 0 -12 -7 -12
-16 0 -9 5 -12 13 -8 6 4 3 -2 -7 -14 -11 -12 -15 -22 -10 -22 5 0 8 -26 7
-57 -1 -32 1 -62 5 -67 3 -6 6 -23 7 -38 1 -14 8 -35 16 -44 9 -11 9 -15 2
-10 -9 5 -12 0 -11 -18 1 -15 6 -26 11 -26 5 0 4 -7 -3 -15 -10 -12 -10 -18 1
-31 8 -9 12 -27 11 -40 -2 -14 2 -24 9 -24 9 0 8 -4 -1 -15 -10 -12 -10 -15 0
-15 7 0 10 -8 7 -20 -3 -11 -1 -20 4 -20 5 0 8 -4 7 -9 -2 -5 2 -10 7 -11 6
-1 14 -8 18 -16 5 -8 12 -12 18 -9 5 4 9 1 9 -5 0 -17 83 -3 97 17 8 10 13 12
13 4 0 -8 12 -4 32 10 17 13 29 18 25 12 -5 -8 0 -8 17 0 13 7 22 15 20 18 -2
4 7 6 21 4 14 -1 25 2 25 7 0 6 7 7 16 4 12 -5 15 -2 10 9 -3 9 -2 13 4 10 6
-3 10 0 10 7 0 11 2 10 9 0 6 -11 10 -10 15 3 5 15 9 15 23 4 14 -12 16 -12 8
0 -6 10 -4 13 6 9 16 -6 41 16 31 27 -4 4 4 2 17 -5 14 -7 21 -8 17 -1 -4 6 4
13 19 17 14 3 25 11 25 18 0 6 5 4 10 -4 8 -13 10 -12 10 3 0 10 6 20 14 23 8
3 12 12 9 20 -3 8 0 14 7 14 7 0 5 6 -5 16 -9 9 -13 24 -10 32 3 9 3 13 -1 10
-3 -4 -12 -2 -20 5 -34 31 -44 37 -59 37 -8 0 -15 5 -15 10 0 6 -6 10 -14 10
-8 0 -17 6 -19 13 -4 9 -6 9 -6 -1 -1 -8 -10 -3 -23 11 -13 13 -29 22 -37 19
-8 -3 -11 0 -7 7 5 7 -1 11 -13 11 -12 0 -21 5 -21 10 0 6 -7 10 -16 10 -8 0
-13 4 -10 8 3 5 -1 9 -9 10 -8 1 -22 3 -30 4 -8 1 -13 3 -11 6 9 8 -19 30 -31
25 -7 -3 -13 0 -13 6 0 6 -9 11 -19 11 -11 0 -27 10 -35 22 -9 12 -18 19 -22
15 -3 -3 -13 1 -21 9 -8 8 -19 12 -24 9 -5 -4 -9 -2 -9 3 0 15 -46 31 -61 22
-7 -5 -16 -5 -19 0 -3 4 -13 3 -22 -4z m22 -370 c0 -3 -4 -8 -10 -11 -5 -3
-10 -1 -10 4 0 6 5 11 10 11 6 0 10 -2 10 -4z"/>
<path d="M6524 1073 c5 -13 4 -14 -9 -3 -12 10 -16 9 -21 -4 -3 -9 -10 -14
-15 -11 -14 9 -66 -54 -66 -80 0 -14 3 -25 7 -25 4 0 13 -13 20 -30 7 -16 17
-30 23 -30 6 0 7 -3 4 -6 -4 -4 3 -15 15 -25 11 -11 18 -19 15 -19 -4 0 1 -8
11 -18 9 -11 21 -17 26 -14 5 3 6 0 2 -6 -4 -7 2 -22 13 -34 51 -57 71 -82 71
-89 0 -5 5 -9 10 -9 6 0 20 -9 32 -20 15 -13 25 -17 33 -10 7 5 15 6 20 2 4
-4 5 3 2 16 -3 14 -1 20 6 15 7 -4 8 0 3 12 -5 15 -4 16 8 6 8 -7 12 -20 9
-28 -5 -13 -2 -15 12 -10 14 6 15 5 7 -5 -7 -10 -4 -21 14 -41 13 -16 29 -25
34 -22 6 3 10 1 10 -5 0 -7 8 -9 21 -5 16 5 19 4 14 -5 -6 -9 -4 -11 6 -4 21
13 42 14 55 3 8 -7 14 -6 17 3 4 9 6 9 6 1 1 -16 -16 -26 -24 -13 -3 5 -11 10
-16 10 -6 0 -7 -6 -3 -12 5 -9 2 -8 -9 1 -15 12 -17 12 -11 -3 4 -11 1 -16
-12 -16 -15 0 -16 -2 -5 -9 11 -7 11 -10 -2 -12 -15 -4 -15 -7 -3 -31 8 -15
12 -29 8 -32 -3 -3 2 -6 11 -6 9 0 17 -4 17 -10 0 -5 10 -10 23 -10 18 0 19
-2 7 -10 -13 -8 -12 -10 3 -10 9 0 17 -5 17 -11 0 -5 5 -7 10 -4 6 3 13 -1 16
-9 3 -9 10 -14 14 -11 4 3 11 -2 14 -11 4 -9 13 -14 21 -10 9 3 15 0 15 -9 0
-8 9 -15 20 -15 11 0 20 -4 20 -10 0 -5 7 -10 16 -10 8 0 12 -5 9 -10 -4 -6
-3 -10 2 -9 22 4 43 -2 38 -11 -4 -6 5 -10 20 -10 14 0 28 -7 31 -15 4 -8 10
-12 15 -10 5 3 19 -1 32 -10 13 -8 27 -12 30 -8 4 3 7 1 7 -5 0 -7 9 -12 20
-12 11 0 20 -6 20 -12 0 -9 4 -8 10 2 8 12 10 12 10 1 0 -10 3 -11 13 -2 8 6
17 8 20 4 4 -3 7 -1 7 6 0 7 4 10 9 6 6 -3 8 4 6 15 -2 11 1 20 6 20 6 0 6 6
0 18 -6 11 -6 24 0 35 8 14 7 15 -8 10 -10 -3 -15 -3 -11 1 4 5 3 19 -3 33 -6
16 -5 22 1 18 6 -3 7 1 4 9 -3 9 -9 14 -13 12 -3 -2 -7 10 -8 27 -1 17 -8 34
-15 39 -10 6 -10 8 2 8 13 0 13 1 0 10 -8 5 -11 10 -6 10 4 0 1 12 -9 26 -9
15 -12 23 -6 20 16 -10 13 3 -4 21 -8 8 -12 19 -9 25 4 7 2 8 -4 4 -7 -4 -12
0 -12 10 0 10 -3 15 -6 11 -3 -3 -15 3 -27 13 -11 11 -24 17 -28 14 -4 -2 -10
0 -13 5 -5 8 -26 4 -131 -25 -11 -4 -28 -7 -37 -7 -10 -1 -18 -5 -18 -9 0 -4
-3 -7 -7 -7 -30 5 -63 -2 -57 -13 4 -7 3 -8 -4 -4 -21 13 -13 24 23 30 20 4
33 11 30 15 -3 5 2 12 11 15 8 3 12 2 9 -4 -3 -6 -1 -10 5 -10 6 0 13 7 16 15
4 8 10 15 16 15 5 0 6 -6 3 -12 -4 -7 -1 -6 7 3 7 9 19 14 26 12 6 -3 12 0 12
6 0 6 9 11 21 11 11 0 17 5 14 10 -3 6 2 10 12 11 10 0 13 3 6 5 -7 3 -9 12
-6 19 3 8 -2 22 -11 31 -9 8 -13 20 -10 26 4 7 2 8 -4 4 -7 -4 -12 -2 -12 5 0
7 -3 10 -6 6 -3 -3 -16 4 -29 15 -13 11 -27 20 -32 21 -4 0 -19 11 -33 24 -14
13 -33 26 -43 29 -9 3 -15 10 -11 15 3 5 2 8 -3 7 -12 -3 -55 22 -74 44 -9 10
-24 18 -32 18 -9 0 -21 9 -27 20 -6 11 -14 19 -18 17 -4 -1 -17 7 -29 18 -41
37 -51 44 -77 49 -19 3 -26 0 -26 -11 0 -9 -6 -13 -13 -10 -10 4 -13 -2 -9
-19 2 -14 0 -24 -7 -24 -7 0 -9 5 -5 12 5 7 2 9 -7 6 -10 -4 -14 3 -16 20 0
14 -8 31 -17 37 -9 7 -14 14 -11 16 2 3 -16 6 -41 6 -38 1 -45 -1 -40 -14z
m153 -110 c0 -14 -23 -18 -31 -4 -7 10 0 18 17 18 8 0 14 -6 14 -14z m10 -30
c-4 -3 -2 -12 5 -20 9 -11 7 -12 -8 -7 -17 5 -17 4 -4 -8 8 -7 16 -30 17 -51
1 -35 0 -37 -12 -21 -7 10 -11 28 -9 40 2 12 -3 27 -11 34 -12 10 -13 16 -4
26 6 8 16 14 22 14 6 0 7 -3 4 -7z m33 -168 c14 -19 14 -19 -2 -6 -10 7 -18
18 -18 24 0 6 1 8 3 6 1 -2 9 -13 17 -24z m13 -39 c4 -10 1 -13 -8 -9 -8 3
-12 9 -9 14 7 12 11 11 17 -5z"/>
<path d="M9489 1085 c-1 -3 -2 -9 -3 -13 0 -5 -9 -16 -18 -26 -10 -9 -14 -24
-11 -33 4 -9 2 -14 -3 -10 -6 3 -9 -8 -9 -26 2 -38 -4 -59 -15 -52 -4 2 -6 -8
-4 -23 2 -15 -4 -38 -13 -51 -8 -13 -10 -20 -4 -17 6 4 11 2 11 -3 0 -6 -4
-11 -8 -11 -4 0 -8 -10 -9 -22 -1 -11 -8 -25 -15 -29 -10 -7 -10 -9 2 -9 12 0
12 -2 2 -9 -8 -4 -13 -11 -13 -15 1 -3 1 -7 0 -8 -6 -16 -4 -58 3 -58 5 0 6
-4 3 -10 -3 -5 -3 -10 2 -11 4 0 18 -2 31 -5 13 -2 21 0 17 6 -3 5 3 15 15 22
11 7 20 19 20 26 0 7 5 10 10 7 6 -3 10 1 10 9 0 8 5 18 12 22 7 5 8 3 3 -6
-5 -9 -4 -11 4 -6 6 4 9 11 6 15 -6 10 30 53 37 45 3 -3 8 7 12 21 4 14 11 25
16 25 6 0 10 4 10 10 0 5 8 19 18 31 9 11 27 33 39 47 13 15 23 33 23 40 0 6
4 12 8 12 5 0 9 7 9 15 0 8 -4 12 -9 9 -7 -5 -12 10 -9 29 0 4 -6 7 -15 7 -8
0 -12 5 -9 10 4 6 3 10 -2 9 -18 -3 -34 1 -29 9 2 4 -10 9 -27 10 -17 2 -34 6
-37 11 -7 10 -40 10 -40 -1 0 -4 -5 -8 -11 -8 -5 0 -7 5 -4 10 3 6 4 10 1 10
-3 0 -7 -2 -7 -5z"/>
<path d="M9342 1035 c-13 -7 -23 -16 -24 -21 0 -5 -5 -8 -10 -6 -14 4 -39 -18
-32 -29 3 -5 2 -9 -3 -8 -21 4 -44 -2 -39 -10 6 -9 -43 -36 -58 -32 -5 1 -6
-6 -2 -15 4 -11 2 -15 -8 -11 -8 3 -17 -1 -20 -9 -3 -8 -11 -13 -18 -12 -7 2
-12 -3 -10 -10 1 -8 -3 -12 -9 -10 -6 2 -24 -9 -40 -25 -16 -15 -33 -26 -38
-23 -5 3 -12 -1 -15 -10 -3 -8 -10 -13 -15 -9 -5 3 -12 -4 -16 -15 -3 -11 -9
-19 -13 -17 -12 4 -52 -42 -42 -48 5 -3 7 -12 4 -20 -9 -22 20 -47 36 -32 7 7
10 8 8 2 -7 -13 12 -31 32 -30 8 1 20 -3 27 -8 7 -5 17 -6 23 -2 5 3 10 1 10
-6 0 -7 3 -9 7 -6 3 4 13 1 21 -6 13 -10 14 -9 7 3 -6 11 -3 10 11 -2 15 -13
23 -15 32 -6 9 9 13 7 18 -5 3 -9 10 -15 14 -12 5 3 11 1 15 -5 4 -6 11 -8 16
-4 5 3 16 0 24 -6 12 -10 15 -10 15 1 0 11 2 11 10 -1 7 -12 10 -12 10 -1 0 7
6 11 14 8 16 -6 52 40 62 79 4 16 12 35 18 43 9 12 8 13 -4 6 -11 -6 -10 -3 2
11 12 14 15 23 7 31 -7 7 -5 15 6 27 10 10 12 16 4 16 -8 0 -9 4 0 13 8 10 7
17 -2 27 -9 10 -9 11 1 6 7 -5 12 -1 12 9 0 10 5 14 13 9 10 -6 10 -4 0 7 -14
14 -18 33 -5 25 4 -3 7 8 6 25 -1 16 2 29 8 29 5 0 6 5 3 10 -3 6 0 10 7 10 9
0 9 3 -2 10 -8 5 -10 10 -3 10 8 0 8 9 0 35 -9 29 -13 33 -26 22 -12 -9 -13
-9 -7 1 9 15 -11 14 -42 -3z"/>
<path d="M7942 903 c-6 -2 -10 -9 -6 -14 3 -5 -5 -5 -20 1 -14 5 -26 5 -28 0
-2 -5 -10 -10 -18 -12 -8 -2 -18 -7 -21 -11 -3 -4 -16 -9 -27 -10 -12 -1 -22
-5 -22 -9 0 -4 -9 -5 -20 -3 -13 2 -18 0 -14 -7 4 -6 1 -9 -7 -6 -8 3 -20 -2
-27 -11 -10 -12 -12 -13 -6 -1 7 13 5 13 -9 2 -9 -8 -20 -11 -26 -8 -5 3 -11
1 -13 -6 -4 -10 -23 -17 -55 -20 -7 -1 -13 -5 -13 -10 0 -4 -7 -8 -15 -8 -8 0
-15 -6 -15 -12 0 -10 -3 -9 -9 1 -6 10 -10 10 -16 1 -4 -6 -14 -9 -22 -6 -8 3
-11 1 -8 -4 3 -6 0 -11 -7 -11 -7 -1 -19 -2 -26 -3 -7 0 -22 -12 -33 -26 -12
-14 -17 -18 -13 -10 4 8 4 12 0 8 -4 -3 -8 -10 -8 -15 0 -4 -5 -14 -11 -21 -8
-10 -7 -12 2 -10 8 2 15 -5 16 -14 4 -21 23 -41 50 -53 11 -4 22 -9 25 -10 3
-2 15 -6 28 -10 12 -4 22 -12 22 -17 0 -6 7 -8 15 -4 8 3 15 1 15 -5 0 -6 6
-9 12 -7 7 3 21 -4 32 -13 10 -10 22 -16 27 -14 4 3 14 -2 23 -11 9 -8 20 -12
26 -9 5 3 10 1 10 -5 0 -6 5 -8 10 -5 6 3 10 1 10 -5 0 -6 4 -9 9 -5 5 3 16
-2 25 -10 8 -9 18 -16 21 -15 21 1 25 -1 20 -10 -3 -6 1 -7 9 -4 9 3 16 1 16
-6 0 -6 4 -9 8 -6 5 3 23 -4 41 -15 18 -11 29 -14 25 -7 -6 10 -3 9 9 -1 11
-9 17 -10 17 -2 0 6 5 11 11 11 5 0 7 -6 3 -12 -5 -8 0 -7 12 2 28 22 45 39
44 45 0 3 0 6 1 8 6 19 4 55 -5 66 -8 11 -8 13 0 8 7 -4 12 2 12 18 0 14 -5
22 -11 18 -6 -4 -7 -1 -1 8 12 20 14 38 3 45 -5 3 -4 14 2 26 8 16 8 22 -2 29
-10 6 -10 10 0 23 8 9 9 16 3 16 -11 0 -11 18 1 37 4 6 2 15 -4 19 -8 5 -9 3
-4 -6 6 -9 4 -11 -4 -5 -10 6 -9 11 3 23 14 14 13 18 -6 45 -12 17 -17 27 -10
23 21 -13 13 6 -12 29 -14 13 -22 26 -19 29 7 7 -6 7 -25 -1z"/>
<path d="M8114 889 c-3 -5 -2 -14 1 -19 4 -6 3 -10 -2 -9 -4 1 -15 1 -23 0
-13 -1 -13 -2 0 -11 13 -8 12 -10 -4 -10 -19 0 -19 0 -1 -13 12 -9 14 -16 7
-21 -6 -4 -8 -14 -5 -23 5 -12 3 -14 -8 -8 -12 7 -12 6 -1 -7 10 -13 10 -17 0
-21 -9 -4 -9 -6 2 -6 13 -1 13 -2 0 -11 -13 -9 -13 -11 0 -20 12 -8 12 -10 1
-10 -10 0 -11 -3 -2 -14 8 -10 9 -16 1 -21 -5 -3 -10 -11 -10 -16 0 -6 6 -7
13 -3 8 5 8 2 -2 -9 -11 -14 -11 -20 0 -34 12 -14 12 -16 0 -8 -11 6 -13 4 -8
-8 3 -10 3 -17 -1 -17 -9 0 -7 -64 3 -79 3 -6 0 -11 -7 -11 -9 0 -9 -3 2 -10
8 -5 11 -10 5 -10 -5 0 -3 -5 5 -10 11 -7 11 -10 2 -10 -10 0 -10 -3 0 -14 7
-8 16 -12 21 -9 4 2 9 -2 12 -9 6 -15 45 -22 45 -8 0 5 7 7 15 4 8 -4 15 -1
15 4 0 6 9 9 20 7 11 -2 18 0 15 6 -6 8 16 14 38 10 5 -1 6 3 2 9 -3 5 -1 11
4 11 12 2 26 5 39 9 4 1 10 2 15 1 4 0 7 3 7 9 0 5 7 10 15 10 8 0 15 5 15 11
0 5 4 8 9 4 5 -3 15 1 23 8 7 8 18 12 24 10 7 -2 19 3 28 12 9 9 20 14 25 11
5 -4 16 1 25 9 8 9 19 17 23 18 4 1 7 5 6 9 -2 4 7 5 18 3 11 -2 22 2 25 10 3
7 13 16 21 19 14 6 14 4 2 -11 -11 -14 -9 -14 11 2 14 11 28 25 32 30 5 7 8 7
8 0 1 -11 29 35 30 48 0 5 -6 5 -12 1 -9 -5 -9 -2 1 9 12 15 11 17 -3 17 -10
0 -14 5 -10 11 4 7 1 10 -7 7 -7 -2 -22 5 -32 16 -17 19 -18 19 -13 2 6 -16 2
-15 -26 6 -19 14 -43 24 -55 22 -17 -3 -21 0 -16 12 5 14 3 15 -16 5 -17 -10
-22 -9 -27 3 -3 8 -13 17 -21 20 -14 6 -14 4 -2 -11 12 -16 11 -16 -8 0 -12
11 -27 16 -33 12 -6 -3 -9 -1 -8 6 2 8 -7 13 -22 13 -14 1 -32 9 -41 18 -9 10
-19 15 -22 12 -10 -10 -46 7 -50 24 -4 14 -5 14 -6 -2 -1 -20 -1 -20 -16 0
-11 14 -14 15 -15 4 0 -12 -2 -12 -8 -2 -10 15 -80 24 -88 11z"/>
<path d="M8872 628 c-7 -7 -17 -14 -22 -14 -6 -1 -15 -2 -22 -3 -6 0 -8 -4 -5
-7 3 -4 -5 -15 -18 -26 -14 -10 -24 -22 -24 -26 3 -19 -2 -33 -10 -28 -4 3 -6
-6 -3 -19 3 -17 0 -25 -9 -25 -11 0 -11 -2 1 -10 12 -7 12 -10 1 -10 -7 0 -11
-6 -7 -15 3 -8 1 -15 -5 -15 -6 0 -9 -6 -6 -14 5 -13 -12 -26 -34 -26 -5 0 -2
16 6 36 8 20 13 39 11 43 -3 4 -1 13 4 21 5 8 4 22 -2 33 -7 14 -7 17 1 13 6
-4 11 -2 11 3 0 6 -5 11 -11 11 -5 0 -8 4 -5 8 2 4 -4 13 -15 20 -10 7 -19 8
-19 4 0 -5 -13 -7 -28 -4 -17 2 -35 -2 -43 -11 -8 -7 -22 -13 -32 -11 -9 1
-15 -2 -11 -7 5 -8 -19 -13 -31 -6 -2 1 -11 -7 -19 -18 -9 -11 -16 -16 -16
-12 0 4 -10 2 -22 -5 -13 -6 -29 -13 -37 -14 -8 -2 -17 -7 -20 -12 -3 -5 -14
-8 -24 -6 -9 1 -15 -2 -11 -7 3 -5 0 -10 -5 -10 -6 -1 -16 -2 -21 -3 -6 0 -14
-5 -18 -11 -4 -5 -11 -11 -17 -12 -29 -5 -41 -9 -53 -21 -8 -7 -27 -16 -43
-19 -16 -3 -26 -9 -23 -14 3 -5 -4 -9 -14 -9 -27 0 -36 -40 -14 -60 10 -9 27
-16 39 -15 12 1 20 -2 17 -6 -5 -9 35 -23 43 -15 3 3 15 -1 27 -9 11 -8 31
-15 43 -15 13 0 23 -4 23 -10 0 -5 -16 -10 -35 -10 -19 0 -35 5 -35 11 0 5 -4
7 -10 4 -5 -3 -10 -2 -10 3 0 5 -13 7 -30 4 -16 -2 -30 0 -30 6 0 5 -7 13 -16
16 -8 3 -12 2 -9 -4 3 -6 2 -10 -4 -10 -5 0 -14 7 -19 16 -7 12 -11 13 -17 5
-5 -9 -10 -9 -21 0 -8 6 -14 7 -14 2 0 -5 -10 -9 -21 -10 -12 -1 -27 -7 -33
-14 -8 -9 -8 -10 2 -4 11 6 11 3 0 -16 -7 -13 -17 -27 -23 -31 -12 -9 -37 21
-29 33 3 5 -2 9 -11 9 -9 0 -13 4 -10 10 6 9 -8 14 -27 11 -5 0 -8 4 -8 9 0 6
-5 10 -11 10 -5 0 -8 -4 -5 -8 3 -5 -1 -9 -9 -9 -8 0 -11 5 -8 10 4 6 1 7 -8
1 -8 -5 -17 -9 -21 -10 -5 -1 -10 -3 -13 -4 -7 -3 -22 -7 -36 -9 -5 0 -8 -5
-5 -9 3 -5 -8 -6 -25 -4 -18 3 -29 0 -29 -7 0 -7 -8 -11 -17 -10 -39 3 -74 -2
-68 -10 3 -5 1 -12 -4 -15 -5 -4 -8 2 -6 11 2 10 4 22 4 27 1 4 7 6 14 3 8 -3
20 -1 28 3 8 5 19 4 28 -3 12 -9 13 -9 7 1 -4 7 -2 12 4 12 6 0 9 4 6 8 -2 4
11 7 29 7 19 -1 32 2 29 7 -3 4 4 8 16 8 12 0 18 4 15 10 -4 6 -3 10 2 9 19
-3 47 3 35 8 -10 4 -10 8 -1 19 9 11 8 14 -6 14 -11 0 -15 5 -11 16 5 12 1 14
-15 9 -15 -5 -19 -4 -15 4 4 7 -1 11 -13 11 -12 0 -21 5 -21 10 0 6 -9 10 -19
10 -11 0 -23 5 -26 10 -3 6 -13 10 -21 10 -9 0 -22 7 -31 15 -8 8 -19 13 -24
10 -5 -4 -9 -3 -9 2 0 4 -11 13 -25 20 -19 8 -24 8 -19 0 3 -7 0 -5 -8 4 -7 9
-19 14 -27 11 -8 -3 -11 0 -7 7 6 10 -6 15 -26 12 -5 0 -8 3 -8 7 0 5 -6 9
-12 9 -23 1 -42 8 -56 21 -8 7 -18 10 -23 7 -5 -4 -9 2 -9 12 0 15 -2 16 -10
3 -5 -8 -10 -10 -10 -4 0 6 -6 11 -12 11 -7 0 -22 4 -32 9 -12 5 -17 4 -13 -3
4 -6 -3 -9 -18 -7 -14 1 -23 -2 -19 -7 3 -5 1 -9 -5 -9 -6 0 -8 -7 -5 -15 4
-9 0 -15 -7 -15 -11 0 -11 -3 1 -10 8 -5 11 -10 7 -10 -4 0 -3 -9 3 -20 8 -15
8 -20 -1 -20 -8 0 -8 -4 1 -15 6 -8 9 -19 5 -25 -3 -5 -2 -10 2 -10 5 0 10 -8
11 -17 1 -10 3 -31 4 -48 2 -16 8 -29 13 -28 6 1 11 -7 11 -18 0 -10 -7 -19
-16 -19 -13 0 -13 -2 -1 -9 8 -5 16 -18 17 -27 2 -10 10 -24 18 -30 9 -6 16
-17 16 -24 0 -7 8 -10 19 -7 10 2 26 0 35 -5 11 -6 16 -5 16 4 0 10 2 10 9 -1
6 -9 10 -10 16 -2 5 9 10 9 21 0 12 -10 14 -10 12 0 -2 7 7 15 20 17 16 3 22
-1 22 -14 0 -13 -2 -14 -9 -3 -7 11 -10 11 -17 -1 -5 -8 -18 -20 -29 -26 -12
-7 -14 -12 -6 -12 11 0 11 -3 0 -17 -12 -14 -12 -15 0 -9 7 5 16 5 20 0 3 -5
16 -15 29 -22 17 -9 22 -9 22 0 0 9 3 9 12 0 7 -7 21 -12 33 -12 12 0 27 -6
34 -13 11 -10 12 -9 6 3 -7 12 -6 13 6 3 8 -7 25 -12 37 -13 12 0 32 0 44 -1
11 0 30 -5 41 -10 12 -7 17 -7 13 -1 -3 6 5 9 19 8 14 0 25 -5 25 -10 0 -5 8
-2 17 5 14 12 16 12 8 0 -5 -10 -4 -12 4 -7 6 4 26 9 44 12 18 2 37 10 43 19
6 8 15 11 20 7 4 -4 2 1 -6 11 -9 12 -10 21 -3 25 5 4 9 15 7 25 -1 9 2 15 7
11 5 -3 9 0 9 5 0 6 -4 11 -10 11 -18 0 -11 16 8 17 13 1 18 -6 18 -23 0 -13
-4 -24 -9 -24 -5 0 -3 -8 4 -17 9 -11 10 -14 2 -9 -8 4 -6 -5 4 -22 9 -16 29
-34 45 -40 15 -6 26 -6 22 -1 -3 5 -1 9 5 9 5 0 13 -5 16 -10 4 -7 13 -6 27 1
14 8 23 8 31 0 6 -6 17 -7 26 -2 9 5 24 7 33 6 10 -2 21 1 24 7 4 6 10 5 15
-3 7 -11 9 -11 9 -1 0 7 5 10 10 7 6 -3 15 -3 22 1 6 4 28 9 47 11 70 7 134
30 125 44 -3 5 0 9 7 9 8 0 9 3 0 13 -6 8 -8 17 -4 20 3 4 -8 10 -25 13 -18 4
-32 10 -32 15 0 5 -4 9 -10 9 -5 0 -7 -8 -4 -17 5 -17 5 -17 -6 0 -7 11 -24
17 -46 17 -20 0 -33 4 -29 10 3 5 13 7 23 4 15 -5 15 -4 2 6 -13 10 -12 11 5
5 11 -4 28 -7 37 -7 10 0 20 -4 23 -9 4 -5 11 -6 17 -3 7 5 8 2 3 -6 -6 -10
-4 -12 8 -7 10 4 17 1 17 -6 0 -8 3 -8 9 2 6 10 10 10 13 1 4 -13 68 -21 68
-8 0 4 6 5 14 2 8 -3 17 0 21 5 3 6 11 9 16 6 5 -4 9 2 9 13 0 27 11 34 28 19
13 -10 14 -9 7 3 -14 23 -16 50 -4 50 6 0 7 5 2 12 -11 19 -13 39 -2 32 9 -5
13 8 10 32 -2 15 37 25 46 12 3 -7 1 -8 -5 -4 -11 6 -17 -13 -13 -37 1 -5 -3
-6 -8 -3 -5 3 -12 -1 -15 -10 -3 -8 -2 -12 3 -9 5 3 12 1 15 -4 3 -5 0 -11 -7
-14 -8 -3 -13 -16 -11 -29 1 -12 3 -33 3 -46 1 -13 6 -20 11 -17 6 3 10 1 10
-4 0 -14 53 -10 62 3 4 6 13 11 20 12 27 1 78 26 72 35 -3 5 -2 9 3 8 22 -5
113 42 106 54 -3 6 -1 7 6 3 6 -4 24 2 40 13 16 12 34 21 40 21 6 0 11 4 11 9
0 5 15 16 33 24 17 9 47 30 65 46 18 17 37 31 42 31 5 0 6 7 3 17 -4 11 -3 14
5 9 9 -5 9 0 2 19 -13 35 -32 53 -49 47 -9 -3 -11 0 -6 9 6 11 5 11 -5 2 -10
-9 -18 -8 -36 4 -13 8 -27 12 -33 9 -5 -3 -11 0 -14 6 -3 10 -8 10 -21 -1 -15
-12 -17 -12 -14 0 2 9 -6 14 -24 13 -15 0 -24 4 -21 10 4 5 -1 7 -10 3 -10 -3
-17 -2 -17 3 0 5 -9 7 -20 5 -11 -2 -22 0 -25 5 -3 5 -19 7 -35 5 -18 -3 -28
0 -25 5 9 14 1 12 -13 -2z m-1226 -435 c-11 -11 -19 6 -11 24 8 17 8 17 12 0
3 -10 2 -21 -1 -24z m44 26 c0 -4 -6 -9 -13 -12 -8 -3 -14 0 -14 7 0 7 6 13
14 13 7 0 13 -4 13 -8z"/>
</g>
</svg>
